<svg width="647" height="647" viewBox="0 0 647 647" fill="none" xmlns="http://www.w3.org/2000/svg">
<g clip-path="url(#clip0_243_147)">
<path d="M647 0H0V647H647V0Z" fill="white"/>
<path d="M540.014 413.381C494.968 520.998 374.975 581.286 270.917 565.024C253.985 562.377 207.564 554.495 166.466 517.307C87.3475 445.718 70.4275 303.962 134.25 204.064C180.701 131.355 263.97 90.1388 343.091 92.2005C360.134 92.6445 425.449 95.3815 482.85 143.405C491.281 150.459 509.877 167.22 526.636 193.812C565.989 256.252 569.371 343.246 540.014 413.381Z" fill="url(#paint0_linear_243_147)"/>
<path d="M83.5596 393.3C91.2507 360.473 116.401 334.704 148.418 326.823C170.43 321.404 191.549 324.312 209.399 333.092C215.32 336.003 222.355 332.707 223.996 326.188C239.775 263.476 295.31 217.146 361.402 217.146C439.772 217.146 503.303 282.287 503.303 362.641C503.303 364.774 503.261 367.688 503.225 370.484C503.502 376.493 506.061 379.044 509.881 379.685C540.586 382.961 564.717 408.915 566.056 440.927C567.593 477.683 538.416 508.136 502.534 508.136H170.638C113.822 508.136 69.3364 454.007 83.5596 393.3Z" fill="url(#paint1_linear_243_147)"/>
<path opacity="0.21" d="M109.265 405.603C116.132 376.292 138.588 353.284 167.175 346.247C186.829 341.409 205.685 344.005 221.623 351.844C226.909 354.444 233.191 351.501 234.656 345.68C248.745 289.687 298.33 248.32 357.341 248.32C427.315 248.32 484.041 306.482 484.041 378.228C484.041 380.133 484.003 382.734 483.971 385.231C484.218 390.596 486.503 392.874 489.914 393.446C517.329 396.372 538.875 419.545 540.07 448.127C541.443 480.946 515.392 508.136 483.354 508.136H187.014C136.285 508.136 96.5655 459.805 109.265 405.603Z" fill="#91B3FA"/>
<path d="M147.8 547.459C147.8 550.149 150.003 552.35 152.695 552.35H417.423C420.116 552.35 422.318 550.149 422.318 547.459L424.521 395.327C424.521 392.637 421.352 387.386 415.544 387.781L156.823 381.086C153.445 380.999 150.178 382.299 147.786 384.684C145.394 387.068 144.085 390.328 144.165 393.704L147.8 547.459Z" fill="url(#paint2_linear_243_147)"/>
<path d="M152.633 542.767C152.633 545.314 154.717 547.398 157.265 547.398H411.039C413.587 547.398 415.671 545.314 415.671 542.767L417.749 404.66C417.504 396.349 410.218 393.362 405.801 393.539L157.841 386.886C155.467 386.823 153.173 387.737 151.492 389.414C149.811 391.091 148.886 393.385 148.946 395.759L152.633 542.767Z" fill="#7D97F4"/>
<path d="M412.928 477.157C412.925 477.157 412.921 477.157 412.921 477.157C412.543 477.151 412.243 476.843 412.249 476.468L412.413 465.267C412.419 464.896 412.722 464.599 413.092 464.599C413.095 464.599 413.098 464.599 413.098 464.599C413.477 464.604 413.776 464.912 413.77 465.288L413.606 476.488C413.601 476.859 413.298 477.157 412.928 477.157Z" fill="white"/>
<path d="M413.331 449.71C413.331 449.71 413.324 449.71 413.321 449.71C412.946 449.705 412.647 449.396 412.653 449.021L413.282 406.124C413.27 403.576 412.497 401.542 410.983 400.091C408.157 397.384 403.671 397.522 403.482 397.531L324.228 395.406C323.854 395.396 323.558 395.084 323.568 394.709C323.578 394.334 323.866 394.015 324.265 394.049L403.471 396.174C403.964 396.145 408.741 396.063 411.922 399.111C413.712 400.825 414.626 403.188 414.639 406.131L414.009 449.041C414.004 449.413 413.701 449.71 413.331 449.71Z" fill="white"/>
<path d="M127.31 564.979H437.442C437.984 564.979 438.428 564.535 438.428 563.993V552.598C438.428 552.055 437.984 551.612 437.442 551.612H127.31C126.768 551.612 126.324 552.055 126.324 552.598V563.993C126.324 564.535 126.768 564.979 127.31 564.979Z" fill="url(#paint3_linear_243_147)"/>
<path d="M262.732 540.661H165.023C161.42 540.661 158.5 537.741 158.5 534.138V406.597C158.5 402.897 161.574 399.937 165.272 400.079L262.981 403.818C266.485 403.952 269.255 406.831 269.255 410.336V534.138C269.255 537.741 266.335 540.661 262.732 540.661Z" fill="#91B3FA"/>
<path opacity="0.51" d="M243.298 458.713H178.576C178.062 458.713 177.646 458.297 177.646 457.783V451.042C177.646 450.528 178.062 450.112 178.576 450.112H243.298C243.811 450.112 244.228 450.528 244.228 451.042V457.783C244.228 458.297 243.811 458.713 243.298 458.713Z" fill="white"/>
<path opacity="0.51" d="M243.428 472.449H178.707C178.193 472.449 177.777 472.032 177.777 471.519V464.777C177.777 464.264 178.193 463.847 178.707 463.847H243.428C243.942 463.847 244.358 464.264 244.358 464.777V471.519C244.359 472.032 243.942 472.449 243.428 472.449Z" fill="white"/>
<path opacity="0.51" d="M243.818 486.472H179.097C178.583 486.472 178.167 486.056 178.167 485.542V478.801C178.167 478.287 178.583 477.871 179.097 477.871H243.818C244.332 477.871 244.749 478.287 244.749 478.801V485.542C244.749 486.056 244.332 486.472 243.818 486.472Z" fill="white"/>
<path opacity="0.51" d="M243.949 500.208H179.228C178.714 500.208 178.298 499.792 178.298 499.278V492.537C178.298 492.023 178.714 491.607 179.228 491.607H243.949C244.463 491.607 244.879 492.023 244.879 492.537V499.278C244.879 499.792 244.463 500.208 243.949 500.208Z" fill="white"/>
<path opacity="0.51" d="M385.238 458.703H291.373C290.86 458.703 290.443 458.287 290.443 457.773V451.032C290.443 450.518 290.86 450.102 291.373 450.102H385.238C385.752 450.102 386.168 450.518 386.168 451.032V457.773C386.168 458.287 385.752 458.703 385.238 458.703Z" fill="white"/>
<path opacity="0.51" d="M385.534 472.449H291.669C291.156 472.449 290.739 472.032 290.739 471.519V464.777C290.739 464.264 291.156 463.847 291.669 463.847H385.534C386.048 463.847 386.464 464.264 386.464 464.777V471.519C386.464 472.032 386.048 472.449 385.534 472.449Z" fill="white"/>
<path opacity="0.51" d="M346.531 486.473H291.669C291.156 486.473 290.739 486.056 290.739 485.542V478.801C290.739 478.287 291.156 477.871 291.669 477.871H346.531C347.045 477.871 347.461 478.288 347.461 478.801V485.542C347.461 486.056 347.045 486.473 346.531 486.473Z" fill="white"/>
<g opacity="0.51">
<path d="M341.259 418.044H339.8C339.076 418.044 338.49 417.457 338.49 416.733V411.749C338.49 409.965 337.043 408.519 335.259 408.519H326.225C324.441 408.519 322.994 409.965 322.994 411.749V416.733C322.994 417.457 322.408 418.044 321.684 418.044H320.225C319.501 418.044 318.915 417.457 318.915 416.733V411.749C318.915 407.712 322.187 404.439 326.225 404.439H335.26C339.297 404.439 342.57 407.712 342.57 411.749V416.733C342.569 417.457 341.982 418.044 341.259 418.044Z" fill="white"/>
<path d="M343.066 419.22H318.418C316.908 419.22 315.683 420.444 315.683 421.955V440.871C315.683 442.382 316.908 443.606 318.418 443.606H343.066C344.576 443.606 345.801 442.382 345.801 440.871V421.955C345.801 420.444 344.576 419.22 343.066 419.22ZM334.269 437.503C334.422 438.14 333.939 438.753 333.283 438.753H328.201C327.545 438.753 327.062 438.14 327.216 437.503L328.402 432.566C327.002 431.729 326.086 430.165 326.18 428.394C326.301 426.102 328.159 424.225 330.45 424.083C333.106 423.918 335.311 426.022 335.311 428.642C335.311 430.31 334.417 431.768 333.083 432.566L334.269 437.503Z" fill="white"/>
</g>
<path d="M413.007 197.206C412.911 197.206 412.813 197.183 412.723 197.132C412.439 196.975 412.337 196.618 412.495 196.334C412.873 195.654 413.239 194.97 413.594 194.28C413.743 193.993 414.096 193.88 414.386 194.028C414.673 194.177 414.786 194.531 414.638 194.819C414.277 195.519 413.905 196.214 413.521 196.904C413.414 197.097 413.214 197.206 413.007 197.206Z" fill="#91B3FA"/>
<path d="M344.326 237.631C343.979 237.631 343.633 237.629 343.286 237.624C342.962 237.62 342.703 237.354 342.707 237.029C342.712 236.708 342.974 236.45 343.294 236.45H343.302C344.821 236.47 346.355 236.445 347.871 236.376C348.173 236.356 348.469 236.612 348.484 236.937C348.499 237.26 348.248 237.535 347.924 237.549C346.731 237.604 345.521 237.631 344.326 237.631ZM335.829 237.173C335.808 237.173 335.787 237.172 335.766 237.169C334.232 237.003 332.686 236.79 331.171 236.536C330.851 236.483 330.636 236.18 330.689 235.86C330.742 235.541 331.047 235.323 331.365 235.378C332.858 235.629 334.381 235.839 335.892 236.002C336.214 236.037 336.447 236.327 336.412 236.649C336.38 236.95 336.125 237.173 335.829 237.173ZM355.344 236.858C355.056 236.858 354.805 236.646 354.764 236.353C354.718 236.032 354.942 235.735 355.263 235.69C356.766 235.478 358.281 235.219 359.767 234.92C360.082 234.856 360.395 235.062 360.459 235.38C360.522 235.697 360.317 236.007 359.999 236.071C358.49 236.375 356.952 236.638 355.427 236.853C355.399 236.856 355.371 236.858 355.344 236.858ZM323.96 234.96C323.91 234.96 323.859 234.954 323.808 234.94C322.32 234.543 320.826 234.096 319.365 233.613C319.057 233.512 318.89 233.179 318.992 232.871C319.093 232.564 319.424 232.398 319.734 232.498C321.173 232.974 322.645 233.415 324.111 233.806C324.424 233.89 324.61 234.212 324.527 234.525C324.457 234.787 324.219 234.96 323.96 234.96ZM367.137 234.258C366.885 234.258 366.652 234.095 366.575 233.841C366.481 233.531 366.657 233.203 366.967 233.109C368.421 232.668 369.879 232.179 371.3 231.656C371.603 231.544 371.941 231.699 372.053 232.004C372.165 232.308 372.01 232.645 371.705 232.758C370.263 233.289 368.784 233.786 367.307 234.233C367.251 234.25 367.193 234.258 367.137 234.258ZM312.569 230.957C312.49 230.957 312.41 230.941 312.333 230.907C310.921 230.285 309.513 229.613 308.147 228.912C307.858 228.764 307.745 228.41 307.893 228.121C308.041 227.834 308.394 227.719 308.683 227.867C310.029 228.558 311.416 229.219 312.806 229.832C313.103 229.963 313.238 230.31 313.107 230.606C313.01 230.826 312.795 230.957 312.569 230.957ZM378.389 229.874C378.17 229.874 377.96 229.751 377.859 229.541C377.718 229.249 377.841 228.898 378.133 228.757C379.499 228.1 380.864 227.392 382.191 226.652C382.476 226.495 382.831 226.597 382.99 226.88C383.147 227.163 383.045 227.521 382.762 227.679C381.415 228.429 380.03 229.148 378.643 229.816C378.561 229.855 378.474 229.874 378.389 229.874ZM301.934 225.248C301.826 225.248 301.716 225.218 301.618 225.155C300.322 224.323 299.034 223.443 297.79 222.538C297.528 222.347 297.47 221.98 297.661 221.717C297.853 221.456 298.219 221.398 298.482 221.588C299.706 222.48 300.975 223.347 302.252 224.166C302.525 224.341 302.604 224.704 302.429 224.977C302.317 225.153 302.127 225.248 301.934 225.248ZM388.829 223.805C388.643 223.805 388.459 223.716 388.345 223.551C388.161 223.284 388.228 222.918 388.495 222.734C389.744 221.873 390.984 220.963 392.181 220.029C392.437 219.83 392.806 219.876 393.005 220.131C393.204 220.387 393.159 220.756 392.903 220.956C391.688 221.902 390.43 222.826 389.162 223.701C389.06 223.771 388.944 223.805 388.829 223.805ZM292.309 217.968C292.17 217.968 292.031 217.919 291.92 217.82C290.771 216.803 289.632 215.736 288.538 214.647C288.308 214.418 288.307 214.047 288.536 213.817C288.765 213.587 289.136 213.586 289.366 213.814C290.444 214.887 291.566 215.939 292.698 216.941C292.941 217.156 292.964 217.527 292.749 217.77C292.632 217.901 292.471 217.968 292.309 217.968ZM398.222 216.205C398.066 216.205 397.911 216.144 397.795 216.021C397.572 215.785 397.583 215.414 397.819 215.191C398.924 214.149 400.011 213.062 401.051 211.961C401.274 211.726 401.645 211.715 401.881 211.937C402.117 212.16 402.128 212.531 401.905 212.767C400.85 213.885 399.746 214.988 398.625 216.046C398.511 216.152 398.367 216.205 398.222 216.205ZM283.901 209.299C283.733 209.299 283.566 209.227 283.449 209.088C282.465 207.907 281.502 206.679 280.586 205.44C280.393 205.179 280.449 204.811 280.709 204.618C280.972 204.425 281.338 204.482 281.531 204.741C282.433 205.963 283.382 207.173 284.352 208.337C284.559 208.586 284.526 208.956 284.276 209.164C284.167 209.255 284.034 209.299 283.901 209.299ZM406.348 207.277C406.222 207.277 406.095 207.237 405.988 207.153C405.732 206.954 405.686 206.585 405.885 206.329C406.821 205.128 407.729 203.888 408.585 202.643C408.77 202.376 409.136 202.308 409.402 202.491C409.669 202.675 409.737 203.041 409.553 203.308C408.683 204.572 407.762 205.831 406.812 207.05C406.696 207.199 406.523 207.277 406.348 207.277ZM276.906 199.457C276.706 199.457 276.512 199.355 276.402 199.172C275.606 197.847 274.842 196.486 274.132 195.126C273.982 194.839 274.093 194.484 274.381 194.334C274.667 194.184 275.023 194.295 275.173 194.583C275.873 195.921 276.625 197.262 277.409 198.567C277.576 198.845 277.486 199.206 277.207 199.373C277.113 199.43 277.008 199.457 276.906 199.457ZM271.508 188.655C271.277 188.655 271.057 188.517 270.964 188.288C270.383 186.858 269.839 185.395 269.347 183.941C269.243 183.634 269.407 183.301 269.715 183.197C270.019 183.093 270.355 183.258 270.459 183.565C270.944 184.997 271.48 186.437 272.052 187.847C272.174 188.147 272.029 188.49 271.729 188.612C271.657 188.641 271.582 188.655 271.508 188.655Z" fill="#91B3FA"/>
<path d="M267.834 177.118C267.568 177.118 267.327 176.936 267.263 176.665C267.083 175.897 266.914 175.127 266.757 174.355C266.692 174.038 266.898 173.727 267.215 173.663C267.532 173.599 267.843 173.803 267.907 174.121C268.062 174.882 268.229 175.64 268.407 176.397C268.481 176.713 268.285 177.029 267.969 177.103C267.924 177.113 267.879 177.118 267.834 177.118Z" fill="#91B3FA"/>
<path d="M277.789 117.246C277.682 117.246 277.574 117.217 277.477 117.155C277.203 116.983 277.12 116.62 277.293 116.346C277.712 115.681 278.142 115.02 278.583 114.364C278.763 114.095 279.129 114.023 279.398 114.204C279.667 114.385 279.738 114.75 279.557 115.019C279.123 115.665 278.7 116.316 278.286 116.972C278.175 117.149 277.984 117.246 277.789 117.246Z" fill="#91B3FA"/>
<path d="M419.687 136.914C419.433 136.914 419.199 136.749 419.123 136.492C418.675 134.962 418.172 133.426 417.63 131.926C417.52 131.622 417.677 131.285 417.982 131.174C418.286 131.063 418.624 131.222 418.734 131.527C419.285 133.049 419.795 134.608 420.251 136.162C420.342 136.473 420.163 136.8 419.852 136.891C419.797 136.907 419.742 136.914 419.687 136.914ZM415.138 125.063C414.918 125.063 414.709 124.941 414.608 124.731C413.915 123.291 413.17 121.856 412.393 120.468C412.235 120.185 412.336 119.827 412.619 119.668C412.902 119.511 413.26 119.611 413.418 119.894C414.206 121.303 414.963 122.76 415.666 124.222C415.807 124.514 415.683 124.865 415.391 125.005C415.309 125.045 415.223 125.063 415.138 125.063ZM408.726 114.107C408.541 114.107 408.358 114.02 408.244 113.856C407.331 112.552 406.363 111.257 405.369 110.007C405.167 109.753 405.209 109.384 405.463 109.182C405.717 108.979 406.086 109.022 406.288 109.276C407.297 110.545 408.279 111.859 409.206 113.183C409.392 113.449 409.328 113.815 409.062 114.001C408.96 114.072 408.842 114.107 408.726 114.107ZM283.781 108.983C283.649 108.983 283.516 108.939 283.406 108.847C283.157 108.64 283.123 108.27 283.33 108.021C284.36 106.78 285.446 105.55 286.557 104.366C286.779 104.129 287.15 104.118 287.387 104.34C287.623 104.562 287.635 104.934 287.413 105.17C286.318 106.337 285.248 107.548 284.233 108.771C284.117 108.91 283.95 108.983 283.781 108.983ZM400.635 104.324C400.481 104.324 400.328 104.265 400.213 104.146C399.107 103.006 397.947 101.881 396.766 100.804C396.526 100.585 396.509 100.214 396.727 99.9743C396.946 99.7335 397.318 99.7169 397.557 99.936C398.756 101.03 399.933 102.171 401.056 103.328C401.282 103.561 401.276 103.933 401.043 104.159C400.929 104.269 400.782 104.324 400.635 104.324ZM292.645 99.8962C292.482 99.8962 292.319 99.828 292.203 99.6955C291.99 99.4512 292.015 99.0802 292.259 98.867C293.481 97.8 294.749 96.7582 296.029 95.7702C296.287 95.573 296.655 95.6206 296.853 95.8763C297.05 96.1332 297.003 96.5018 296.747 96.7001C295.485 97.6731 294.235 98.6994 293.032 99.7509C292.921 99.8486 292.782 99.8962 292.645 99.8962ZM391.094 95.9584C390.973 95.9584 390.85 95.9206 390.744 95.8426C389.465 94.8915 388.139 93.9689 386.804 93.0998C386.532 92.9231 386.455 92.5591 386.632 92.2873C386.809 92.0161 387.171 91.9386 387.445 92.1158C388.8 92.9983 390.146 93.9346 391.445 94.9C391.705 95.0932 391.759 95.4614 391.566 95.7216C391.451 95.8764 391.274 95.9584 391.094 95.9584ZM302.848 92.3354C302.652 92.3354 302.46 92.2374 302.349 92.0584C302.177 91.7833 302.262 91.4214 302.537 91.25C303.91 90.3951 305.33 89.5706 306.756 88.8006C307.042 88.6452 307.398 88.7535 307.551 89.038C307.706 89.3234 307.599 89.6795 307.314 89.8337C305.909 90.5923 304.51 91.4041 303.157 92.2464C303.061 92.3068 302.954 92.3354 302.848 92.3354ZM380.326 89.2439C380.236 89.2439 380.144 89.2233 380.058 89.1785C378.643 88.4487 377.184 87.7532 375.724 87.1111C375.427 86.981 375.292 86.6346 375.423 86.3376C375.553 86.0407 375.899 85.9048 376.196 86.0366C377.679 86.688 379.159 87.3938 380.596 88.1351C380.884 88.2835 380.997 88.6379 380.849 88.9258C380.744 89.1281 380.539 89.2439 380.326 89.2439ZM314.135 86.5222C313.905 86.5222 313.687 86.3863 313.593 86.1605C313.468 85.8612 313.611 85.5178 313.91 85.3928C315.401 84.773 316.935 84.1898 318.47 83.6612C318.778 83.5562 319.111 83.7179 319.216 84.0247C319.322 84.3314 319.159 84.6657 318.853 84.7712C317.342 85.2923 315.83 85.8663 314.361 86.4775C314.287 86.5079 314.21 86.5222 314.135 86.5222ZM368.613 84.3618C368.553 84.3618 368.492 84.3525 368.432 84.3332C366.916 83.8417 365.364 83.3911 363.82 82.9933C363.505 82.9124 363.316 82.592 363.397 82.2783C363.478 81.964 363.803 81.7755 364.112 81.8557C365.68 82.26 367.256 82.7174 368.794 83.2163C369.103 83.3161 369.271 83.6474 369.171 83.956C369.091 84.2041 368.86 84.3618 368.613 84.3618ZM326.214 82.6177C325.948 82.6177 325.706 82.4354 325.643 82.1653C325.569 81.85 325.764 81.5335 326.08 81.459C327.659 81.0868 329.267 80.76 330.859 80.4878C331.186 80.4362 331.482 80.6477 331.537 80.9672C331.592 81.2872 331.377 81.5905 331.058 81.6449C329.489 81.9133 327.905 82.2354 326.349 82.6023C326.304 82.6126 326.259 82.6177 326.214 82.6177ZM356.264 81.4332C356.235 81.4332 356.204 81.4309 356.175 81.4262C354.598 81.1843 352.994 80.9888 351.405 80.8443C351.083 80.815 350.845 80.5289 350.874 80.2061C350.904 79.8833 351.182 79.6442 351.512 79.6746C353.124 79.8214 354.753 80.0204 356.352 80.2658C356.673 80.3151 356.893 80.6144 356.844 80.9349C356.799 81.2256 356.549 81.4332 356.264 81.4332ZM338.765 80.7129C338.46 80.7129 338.202 80.4761 338.18 80.1671C338.157 79.8432 338.401 79.5628 338.725 79.5405C340.337 79.427 341.976 79.3628 343.597 79.349H343.602C343.924 79.349 344.186 79.6087 344.189 79.931C344.192 80.2555 343.931 80.5204 343.607 80.5232C342.01 80.537 340.395 80.6001 338.807 80.7112C338.793 80.7124 338.779 80.7129 338.765 80.7129Z" fill="#91B3FA"/>
<path d="M421.919 146.91C421.635 146.91 421.385 146.703 421.34 146.413C421.22 145.647 421.09 144.881 420.946 144.117C420.887 143.798 421.097 143.492 421.416 143.432C421.733 143.377 422.042 143.583 422.101 143.902C422.246 144.677 422.379 145.454 422.5 146.232C422.55 146.553 422.331 146.853 422.011 146.903C421.98 146.908 421.949 146.91 421.919 146.91Z" fill="#91B3FA"/>
<path d="M404.625 156.734C404.657 156.333 404.43 155.956 404.061 155.796L393.536 151.224C392.723 145.927 391.06 140.721 388.525 135.823L394.333 125.935C394.537 125.588 394.498 125.15 394.237 124.845L385.289 114.385C385.028 114.08 384.601 113.974 384.227 114.121L373.559 118.328C369.112 115.065 364.227 112.615 359.12 110.991L356.233 99.8851C356.132 99.4958 355.795 99.2136 355.394 99.1824L341.672 98.1132C341.27 98.082 340.894 98.3085 340.734 98.6776L336.161 109.203C330.864 110.016 325.659 111.679 320.761 114.214L310.873 108.406C310.526 108.202 310.088 108.241 309.782 108.502L299.323 117.45C299.017 117.711 298.911 118.138 299.059 118.512L303.265 129.181C300.003 133.627 297.553 138.511 295.929 143.619L284.823 146.505C284.434 146.607 284.151 146.944 284.12 147.345L283.051 161.067C283.019 161.468 283.246 161.845 283.615 162.005L294.14 166.577C294.953 171.874 296.616 177.08 299.151 181.978L293.343 191.866C293.139 192.213 293.178 192.651 293.439 192.956L302.387 203.416C302.648 203.722 303.075 203.827 303.449 203.68L314.118 199.473C318.564 202.736 323.449 205.186 328.556 206.81L331.443 217.916C331.543 218.305 331.881 218.587 332.282 218.618L346.005 219.688C346.405 219.719 346.782 219.492 346.943 219.123L351.515 208.598C356.812 207.785 362.017 206.122 366.915 203.587L376.804 209.395C377.15 209.599 377.588 209.56 377.894 209.299L388.353 200.351C388.659 200.09 388.765 199.663 388.618 199.289L384.411 188.621C387.674 184.174 390.123 179.289 391.747 174.183L402.854 171.296C403.243 171.195 403.525 170.858 403.557 170.456L404.625 156.734Z" fill="#91B3FA"/>
<path opacity="0.7" d="M343.81 172.006C341.123 172.007 338.507 171.179 336.269 169.596C330.372 165.423 328.969 157.229 333.142 151.332C335.164 148.475 338.178 146.577 341.628 145.986C345.077 145.397 348.55 146.184 351.407 148.206C354.264 150.228 356.163 153.241 356.753 156.69C357.343 160.14 356.555 163.613 354.533 166.47C352.512 169.327 349.499 171.225 346.049 171.815C345.302 171.943 344.553 172.006 343.81 172.006ZM343.862 147.556C343.219 147.556 342.571 147.611 341.925 147.722C338.939 148.233 336.33 149.876 334.581 152.349C330.968 157.453 332.182 164.546 337.286 168.158C339.759 169.908 342.764 170.589 345.752 170.079C348.738 169.569 351.346 167.925 353.095 165.452C354.846 162.979 355.528 159.973 355.017 156.987C354.506 154.001 352.863 151.393 350.39 149.643C348.452 148.272 346.188 147.556 343.862 147.556Z" fill="white"/>
<path opacity="0.7" d="M343.6 192.998C342.703 192.998 341.801 192.963 340.897 192.892C331.817 192.185 323.557 187.984 317.638 181.064C312.307 174.834 309.449 167.07 309.449 158.957C309.449 158.059 309.484 157.158 309.555 156.253C310.262 147.174 314.463 138.914 321.383 132.994C328.303 127.075 337.114 124.204 346.194 124.911C355.273 125.618 363.534 129.819 369.453 136.74C371.033 138.587 372.416 140.6 373.563 142.722L372.013 143.559C370.926 141.547 369.614 139.637 368.115 137.885C362.501 131.322 354.667 127.338 346.057 126.667C337.447 126.002 329.091 128.719 322.528 134.332C315.965 139.946 311.982 147.78 311.31 156.39C311.244 157.248 311.211 158.103 311.211 158.954C311.211 166.647 313.921 174.011 318.976 179.92C324.59 186.482 332.423 190.466 341.034 191.137C349.65 191.808 358.001 189.085 364.563 183.471C369.017 179.661 372.349 174.725 374.2 169.197L375.87 169.757C373.919 175.587 370.404 180.792 365.707 184.81C359.477 190.14 351.712 192.998 343.6 192.998Z" fill="white"/>
<path d="M479.231 216.479C479.129 216.479 479.026 216.452 478.932 216.397C478.653 216.232 478.561 215.871 478.726 215.592C479.121 214.926 479.498 214.245 479.847 213.569C479.996 213.281 480.349 213.169 480.638 213.317C480.926 213.465 481.039 213.819 480.891 214.108C480.531 214.805 480.143 215.505 479.736 216.191C479.627 216.376 479.431 216.479 479.231 216.479Z" fill="#91B3FA"/>
<path d="M441.337 236.129C441.322 236.129 441.307 236.128 441.291 236.127C439.699 236.001 438.099 235.781 436.536 235.473C436.218 235.41 436.011 235.101 436.074 234.783C436.137 234.465 436.447 234.257 436.763 234.32C438.282 234.621 439.836 234.835 441.383 234.956C441.706 234.982 441.948 235.265 441.922 235.588C441.898 235.895 441.641 236.129 441.337 236.129ZM449.016 236.004C448.721 236.004 448.467 235.783 448.433 235.483C448.397 235.16 448.629 234.87 448.952 234.833C450.497 234.66 452.043 234.395 453.548 234.046C453.861 233.969 454.179 234.168 454.252 234.484C454.326 234.8 454.129 235.116 453.814 235.189C452.264 235.55 450.673 235.823 449.082 236.001C449.06 236.003 449.038 236.004 449.016 236.004ZM429.29 233.285C429.216 233.285 429.141 233.271 429.068 233.242C427.592 232.642 426.135 231.947 424.736 231.177C424.452 231.02 424.348 230.663 424.505 230.379C424.661 230.095 425.017 229.993 425.302 230.148C426.661 230.896 428.078 231.571 429.511 232.154C429.811 232.276 429.956 232.618 429.834 232.919C429.741 233.147 429.521 233.285 429.29 233.285ZM460.963 232.758C460.738 232.758 460.524 232.628 460.426 232.411C460.294 232.114 460.427 231.767 460.723 231.635C462.138 231.003 463.531 230.279 464.861 229.485C465.138 229.318 465.499 229.409 465.666 229.688C465.832 229.967 465.742 230.327 465.463 230.493C464.093 231.311 462.659 232.056 461.202 232.707C461.124 232.742 461.042 232.758 460.963 232.758ZM418.682 226.914C418.55 226.914 418.416 226.869 418.306 226.777C417.086 225.759 415.909 224.653 414.808 223.493C414.585 223.257 414.595 222.885 414.83 222.662C415.066 222.44 415.438 222.449 415.66 222.684C416.73 223.812 417.873 224.886 419.059 225.876C419.307 226.084 419.341 226.454 419.133 226.703C419.017 226.842 418.851 226.914 418.682 226.914ZM471.352 226.029C471.191 226.029 471.03 225.962 470.914 225.832C470.698 225.591 470.719 225.219 470.961 225.003L471.307 224.692C472.339 223.75 473.332 222.745 474.258 221.704C474.473 221.461 474.844 221.439 475.087 221.656C475.329 221.871 475.351 222.242 475.135 222.484C474.183 223.556 473.161 224.591 472.098 225.56L471.744 225.88C471.631 225.979 471.492 226.029 471.352 226.029ZM410.497 217.63C410.304 217.63 410.114 217.534 410.002 217.359C409.142 216.016 408.352 214.607 407.655 213.17C407.513 212.879 407.635 212.528 407.926 212.386C408.219 212.245 408.569 212.367 408.711 212.658C409.388 214.053 410.155 215.421 410.991 216.726C411.166 216.999 411.086 217.362 410.813 217.536C410.715 217.6 410.605 217.63 410.497 217.63Z" fill="#91B3FA"/>
<path d="M405.503 206.277C405.243 206.277 405.006 206.103 404.936 205.84C404.734 205.077 404.551 204.297 404.394 203.522C404.329 203.205 404.534 202.895 404.852 202.83C405.17 202.765 405.48 202.97 405.544 203.288C405.698 204.04 405.875 204.798 406.071 205.54C406.155 205.853 405.968 206.175 405.654 206.258C405.603 206.271 405.553 206.277 405.503 206.277Z" fill="#91B3FA"/>
<path d="M410.339 174.415C410.232 174.415 410.124 174.386 410.027 174.324C409.752 174.152 409.67 173.789 409.843 173.515C410.265 172.845 410.712 172.18 411.171 171.537C411.36 171.274 411.727 171.213 411.99 171.401C412.254 171.59 412.315 171.956 412.126 172.22C411.68 172.844 411.246 173.49 410.836 174.141C410.725 174.318 410.534 174.415 410.339 174.415Z" fill="#91B3FA"/>
<path d="M481.659 180.125C481.43 180.125 481.213 179.991 481.118 179.767C480.523 178.365 479.838 176.982 479.083 175.657C478.922 175.375 479.021 175.016 479.302 174.856C479.584 174.695 479.942 174.794 480.103 175.075C480.881 176.44 481.586 177.864 482.199 179.308C482.326 179.606 482.187 179.952 481.888 180.078C481.813 180.11 481.735 180.125 481.659 180.125ZM475.252 169.767C475.087 169.767 474.922 169.697 474.805 169.56C474.506 169.208 474.199 168.86 473.885 168.516C473.168 167.731 472.413 166.965 471.637 166.241C471.401 166.019 471.389 165.647 471.61 165.41C471.832 165.173 472.203 165.161 472.44 165.383C473.237 166.129 474.015 166.917 474.752 167.724C475.075 168.078 475.391 168.436 475.7 168.799C475.909 169.046 475.88 169.416 475.633 169.627C475.523 169.721 475.387 169.767 475.252 169.767ZM416.6 166.755C416.446 166.755 416.291 166.695 416.175 166.574C415.952 166.339 415.96 165.967 416.195 165.743C416.433 165.517 416.673 165.292 416.916 165.07C417.834 164.233 418.799 163.428 419.786 162.679C420.044 162.482 420.412 162.532 420.609 162.791C420.805 163.049 420.755 163.417 420.496 163.613C419.538 164.342 418.599 165.124 417.708 165.937C417.471 166.153 417.237 166.372 417.006 166.593C416.891 166.701 416.746 166.755 416.6 166.755ZM466.06 161.776C465.953 161.776 465.845 161.747 465.747 161.686C464.458 160.871 463.109 160.124 461.737 159.465C461.444 159.324 461.321 158.974 461.462 158.681C461.602 158.389 461.951 158.264 462.245 158.406C463.658 159.085 465.048 159.855 466.375 160.693C466.649 160.866 466.731 161.229 466.558 161.503C466.446 161.679 466.255 161.776 466.06 161.776ZM426.562 159.748C426.346 159.748 426.138 159.629 426.036 159.423C425.891 159.132 426.01 158.78 426.3 158.636C427.703 157.938 429.165 157.315 430.645 156.782C430.952 156.673 431.286 156.831 431.396 157.136C431.506 157.441 431.348 157.777 431.043 157.887C429.605 158.405 428.185 159.01 426.823 159.687C426.739 159.729 426.65 159.748 426.562 159.748ZM454.904 156.906C454.854 156.906 454.803 156.9 454.752 156.887C453.28 156.496 451.768 156.186 450.259 155.966C449.938 155.92 449.715 155.622 449.762 155.301C449.809 154.98 450.105 154.75 450.427 154.805C451.981 155.031 453.537 155.349 455.054 155.751C455.367 155.835 455.554 156.156 455.471 156.47C455.401 156.733 455.163 156.906 454.904 156.906ZM438.163 156.047C437.88 156.047 437.63 155.841 437.584 155.552C437.533 155.232 437.752 154.931 438.072 154.881C439.619 154.636 441.2 154.478 442.771 154.412C443.096 154.405 443.369 154.649 443.383 154.974C443.396 155.298 443.145 155.571 442.821 155.585C441.294 155.649 439.758 155.803 438.256 156.04C438.225 156.045 438.194 156.047 438.163 156.047Z" fill="#91B3FA"/>
<path d="M484.376 189.652C484.092 189.652 483.842 189.445 483.797 189.156C483.679 188.397 483.536 187.632 483.375 186.882C483.306 186.565 483.508 186.252 483.825 186.184C484.147 186.116 484.454 186.318 484.522 186.634C484.689 187.406 484.835 188.194 484.957 188.974C485.007 189.295 484.788 189.595 484.467 189.645C484.437 189.65 484.406 189.652 484.376 189.652Z" fill="#91B3FA"/>
<path d="M475.494 194.413C475.51 194.207 475.394 194.014 475.204 193.931L469.797 191.583C469.38 188.862 468.525 186.188 467.223 183.672L470.207 178.593C470.312 178.414 470.291 178.19 470.157 178.032L465.561 172.659C465.427 172.503 465.208 172.448 465.016 172.524L459.535 174.685C457.251 173.009 454.742 171.75 452.119 170.916L450.636 165.211C450.584 165.011 450.411 164.866 450.205 164.85L443.156 164.301C442.949 164.285 442.756 164.401 442.674 164.591L440.325 169.997C437.604 170.415 434.93 171.27 432.414 172.572L427.335 169.588C427.157 169.483 426.932 169.503 426.775 169.638L421.402 174.234C421.245 174.368 421.19 174.587 421.266 174.78L423.427 180.26C421.751 182.544 420.493 185.053 419.659 187.676L413.954 189.159C413.754 189.211 413.609 189.384 413.593 189.59L413.043 196.639C413.027 196.845 413.144 197.039 413.333 197.121L418.74 199.47C419.157 202.191 420.012 204.865 421.314 207.381L418.33 212.46C418.226 212.638 418.246 212.863 418.38 213.02L422.976 218.393C423.11 218.55 423.33 218.605 423.522 218.529L429.002 216.368C431.286 218.044 433.795 219.302 436.419 220.136L437.902 225.841C437.954 226.041 438.127 226.186 438.333 226.202L445.382 226.752C445.588 226.768 445.781 226.651 445.864 226.462L448.212 221.055C450.933 220.638 453.607 219.783 456.123 218.481L461.202 221.465C461.38 221.569 461.605 221.549 461.762 221.415L467.135 216.819C467.292 216.685 467.347 216.466 467.271 216.273L465.11 210.793C466.786 208.509 468.044 206 468.879 203.377L474.583 201.894C474.783 201.842 474.928 201.669 474.945 201.463L475.494 194.413Z" fill="#91B3FA"/>
<path opacity="0.7" d="M444.253 202.687C442.785 202.687 441.356 202.235 440.133 201.37C436.911 199.09 436.145 194.613 438.425 191.391C439.53 189.83 441.176 188.792 443.061 188.47C444.946 188.147 446.844 188.578 448.404 189.683C449.965 190.788 451.002 192.434 451.325 194.318C451.647 196.204 451.217 198.101 450.112 199.662C449.007 201.223 447.361 202.26 445.476 202.583C445.068 202.653 444.659 202.687 444.253 202.687ZM444.276 190.13C442.582 190.13 440.914 190.923 439.863 192.408C438.144 194.838 438.721 198.213 441.15 199.932C442.328 200.765 443.761 201.09 445.179 200.846C446.6 200.603 447.841 199.821 448.674 198.645C449.507 197.468 449.832 196.036 449.588 194.616C449.345 193.194 448.563 191.953 447.387 191.12C446.442 190.452 445.354 190.13 444.276 190.13Z" fill="white"/>
<path opacity="0.7" d="M444.147 213.47C443.675 213.47 443.2 213.452 442.724 213.414C437.946 213.042 433.599 210.831 430.484 207.189C427.597 203.815 426.184 199.667 426.185 195.539C426.185 190.473 428.313 185.436 432.455 181.893C439.972 175.461 451.321 176.346 457.752 183.864C457.802 183.923 457.852 183.982 457.902 184.041C458.599 184.879 459.219 185.777 459.751 186.717C459.753 186.721 459.755 186.725 459.757 186.728C459.765 186.743 459.773 186.756 459.781 186.77C459.794 186.795 459.808 186.82 459.822 186.844C459.829 186.857 459.837 186.871 459.844 186.884C459.868 186.927 459.891 186.97 459.914 187.012L458.365 187.849C457.82 186.842 457.164 185.887 456.413 185.009C452.306 180.209 445.977 178.409 440.226 179.823C437.854 180.407 435.58 181.538 433.6 183.231C429.864 186.427 427.945 190.969 427.945 195.538C427.945 199.261 429.218 203.001 431.822 206.045C437.622 212.824 447.856 213.622 454.636 207.822C456.864 205.916 458.532 203.446 459.458 200.68L461.129 201.239C460.101 204.308 458.252 207.047 455.78 209.161C452.502 211.965 448.416 213.47 444.147 213.47Z" fill="white"/>
<path d="M329.82 276.459C331.267 275.104 333.224 274.43 335.2 274.607C356.332 276.508 395.759 266.329 421.526 239.964C423.316 238.133 426.577 239.168 428.628 240.7C457.286 262.119 504.789 266.554 521.279 267.461C524.69 267.648 527.457 270.295 527.81 273.693C542.806 418.534 448.501 471.02 428.942 480.284C426.804 481.297 424.287 481.15 422.279 479.899C324.797 419.18 328.967 340.216 327.619 281.707C327.573 279.724 328.372 277.815 329.82 276.459Z" fill="url(#paint4_linear_243_147)"/>
<path opacity="0.61" d="M426.305 469.764C425.869 469.764 425.434 469.641 425.055 469.399C387.683 445.509 363.325 416.948 350.59 382.085C339.216 350.948 338.659 319.241 338.168 291.267L338.101 287.537C338.089 286.915 338.323 286.328 338.759 285.884C339.198 285.437 339.788 285.191 340.418 285.191H340.418C363.563 285.191 398.301 274.971 423.78 252.141C424.562 251.44 425.72 251.356 426.598 251.937C454.593 270.513 494.526 275.922 515.838 277.492C516.972 277.576 517.867 278.46 517.966 279.595C522.92 336.11 511.165 383.899 483.028 421.637C462.014 449.82 437.095 464.505 427.356 469.511C427.027 469.68 426.666 469.764 426.305 469.764ZM426.923 468.666C436.602 463.691 461.372 449.094 482.268 421.07C510.261 383.524 521.954 335.953 517.021 279.678C516.963 279.009 516.436 278.488 515.769 278.438C494.364 276.861 454.248 271.423 426.073 252.728C425.557 252.385 424.874 252.434 424.413 252.848C398.748 275.846 363.744 286.14 340.438 286.14H340.438C340.044 286.14 339.695 286.285 339.436 286.55C339.18 286.81 339.043 287.154 339.05 287.52L339.117 291.25C339.607 319.15 340.162 350.771 351.482 381.76C364.143 416.42 388.376 444.826 425.566 468.6C425.973 468.86 426.494 468.887 426.923 468.666Z" fill="white"/>
<path opacity="0.61" d="M460.379 331.135H455.971C453.782 331.135 452.007 329.361 452.007 327.172V312.104C452.007 306.711 447.635 302.339 442.242 302.339H414.927C409.534 302.339 405.162 306.711 405.162 312.104V327.172C405.162 329.361 403.387 331.135 401.198 331.135H396.79C394.601 331.135 392.827 329.361 392.827 327.172V312.104C392.827 299.898 402.721 290.004 414.927 290.004H442.242C454.448 290.004 464.342 299.898 464.342 312.104V327.172C464.342 329.361 462.568 331.135 460.379 331.135Z" fill="white"/>
<path opacity="0.61" d="M465.843 334.691H391.327C386.76 334.691 383.059 338.393 383.059 342.959V400.147C383.059 404.714 386.76 408.416 391.327 408.416H465.843C470.41 408.416 474.111 404.714 474.111 400.147V342.959C474.111 338.393 470.41 334.691 465.843 334.691ZM439.246 389.964C439.709 391.891 438.249 393.743 436.268 393.743H420.902C418.921 393.743 417.46 391.891 417.923 389.964L421.509 375.039C417.276 372.508 414.51 367.779 414.792 362.427C415.159 355.496 420.775 349.822 427.703 349.391C435.731 348.892 442.398 355.256 442.398 363.176C442.398 368.218 439.695 372.627 435.661 375.039L439.246 389.964Z" fill="white"/>
<path d="M142.949 315.996C142.949 315.996 148.985 316.316 149.725 328.732C149.725 328.732 135.73 341.278 116.826 344.264C115.407 344.488 118.81 334.576 119.322 333.233C121.756 326.845 129.422 322.73 142.949 315.996Z" fill="url(#paint5_linear_243_147)"/>
<path d="M210.919 301.396H198.183C198.183 301.396 159.093 258.225 133.455 253.87C133.455 253.87 115.609 276.651 134.406 319.216C135.918 322.64 140.147 324.161 143.302 322.147C144.245 321.544 144.923 320.736 145.334 319.724L143.823 283.38C143.823 283.38 177.166 312.543 182.962 318.171C188.758 323.799 218.218 320.368 210.919 301.396Z" fill="#7D97F4"/>
<path d="M87.79 392.036C93.1269 387.36 101.631 382.112 113.907 380.607L118.058 383.147C118.058 383.147 115.411 387.052 110.574 391.177C106.13 393.758 99.2661 397.255 93.5758 398.013C88.0437 398.75 87.2279 395.407 87.79 392.036Z" fill="url(#paint6_linear_243_147)"/>
<path d="M119.322 333.233C122.61 334.297 124.056 338.956 132.399 335.875C140.47 332.895 146.471 329.052 149.558 326.835C149.627 327.436 149.685 328.063 149.725 328.732C149.725 328.732 134.969 342.767 116.065 345.753C114.645 345.978 113.521 344.561 114.032 343.218C114.95 340.809 116.606 337.155 119.322 333.233Z" fill="#91B3FA"/>
<path d="M83.7693 396.03C84.8215 394.834 86.1643 393.461 87.79 392.036C87.2277 395.407 88.0437 398.75 93.576 398.013C99.2661 397.255 106.13 393.758 110.575 391.177C105.004 395.928 96.5273 400.971 85.8288 400.675C83.4523 400.609 82.1991 397.815 83.7693 396.03Z" fill="#91B3FA"/>
<path d="M210.453 310.612L150.812 311.257C150.812 311.257 116.752 339.437 110.574 382.405C110.574 382.405 109.549 385.566 115.705 386.106C115.705 386.106 136.298 372.657 149.724 348.879C166.188 319.724 198.804 332.848 198.804 332.848C214.474 336.306 226.945 335.019 236.072 320.974L210.453 310.612Z" fill="#7D97F4"/>
<path d="M209.045 262.568C209.045 262.568 202.624 294.744 171.166 307.474L159.975 306.155L157.335 310.365L183.583 311.202C183.583 311.202 206.02 302.315 217.908 278.099C218.301 277.299 224.847 263.783 209.045 262.568Z" fill="url(#paint7_linear_243_147)"/>
<path d="M205.604 310.086C205.604 310.086 212.905 290.239 214.474 270.955C214.474 270.955 209.133 266.364 205.794 264.384C204.713 263.742 204.305 262.386 204.852 261.254C207.306 256.169 222.15 236.203 223.262 235.926C229.306 234.417 254.092 222.632 271.549 246.511C279.041 256.759 270.062 288.305 236.073 320.974C225.136 322.755 214.911 319.603 205.604 310.086Z" fill="url(#paint8_linear_243_147)"/>
<path d="M233.737 275.304C233.737 275.304 213.452 299.322 187.518 302.833C187.518 302.833 180.816 296.723 175.832 298.904C170.848 301.086 164.014 310.716 164.014 310.716H197.313C197.313 310.716 228.8 309.606 244.533 290.513C243.267 283.832 239.476 279.841 233.737 275.304Z" fill="url(#paint9_linear_243_147)"/>
<path d="M245.571 219.079L250.009 233.882C250.213 234.561 249.962 235.295 249.377 235.695C247.24 237.159 241.656 240.069 233.994 237.241C233.118 236.917 232.517 236.099 232.441 235.168L231.389 222.272L245.571 219.079Z" fill="url(#paint10_linear_243_147)"/>
<path d="M219.582 207.091C219.582 207.091 221.764 222.436 227.658 227.155C233.553 231.874 245.038 228.321 248.917 216.752L241.188 196.973L219.582 207.091Z" fill="url(#paint11_linear_243_147)"/>
<path d="M242.059 209.773C241.61 209.917 241.141 209.63 241.071 209.164C240.858 207.747 240.327 204.944 239.251 203.035C239.251 203.035 239.814 201.021 234.163 204.063C228.513 207.104 220.026 211.571 215.029 208.911C210.158 206.317 205.223 193.264 218.098 195.682C218.588 195.774 219.038 195.384 219.002 194.887C218.843 192.741 219.056 187.806 224.054 186.222C228.732 184.739 231.292 186.85 232.348 188.125C232.658 188.5 233.234 188.492 233.53 188.106C234.931 186.277 238.736 182.383 244.338 184.852C248.952 186.885 249.67 189.727 249.594 191.498C249.569 192.072 250.151 192.461 250.673 192.22C252.086 191.57 254.358 191.231 256.536 193.959C259.546 197.731 255.244 201.001 253.954 201.859C253.743 201.999 253.611 202.232 253.61 202.486C253.597 204.447 253.292 213.002 249.004 217.828C248.633 218.246 247.947 218.123 247.73 217.608L244.429 209.742C244.276 209.376 243.868 209.189 243.491 209.311L242.059 209.773Z" fill="url(#paint12_linear_243_147)"/>
<path d="M241.989 211.369C241.989 211.369 244.005 203.158 247.067 205.824C250.13 208.49 246.269 214.358 242.761 215.476L241.989 211.369Z" fill="url(#paint13_linear_243_147)"/>
<path d="M165.69 312.579L150.739 262.718C150.129 260.683 148.322 259.24 146.203 259.095L126.016 257.714C123.965 257.574 122.438 259.578 123.12 261.519L139.834 309.136C140.373 310.67 141.75 311.755 143.367 311.918L163.246 314.125L165.69 312.579Z" fill="url(#paint14_linear_243_147)"/>
<path d="M138.115 279.617C139.232 281.87 141.159 283.19 142.421 282.565C143.683 281.94 143.801 279.607 142.684 277.354C141.568 275.1 139.641 273.78 138.379 274.405C137.117 275.03 136.999 277.364 138.115 279.617Z" fill="#91B3FA"/>
<path d="M163.246 314.125C163.278 314.125 163.31 314.125 163.343 314.123L205.7 311.982C206.747 311.929 207.552 311.037 207.5 309.99C207.447 308.943 206.551 308.12 205.508 308.19L163.151 310.331C162.104 310.384 161.298 311.276 161.351 312.323C161.403 313.337 162.241 314.125 163.246 314.125Z" fill="url(#paint15_linear_243_147)"/>
<path d="M214.474 271.248C214.312 271.248 214.181 271.118 214.18 270.956C214.151 262.014 217.592 250.181 217.626 250.062C217.672 249.907 217.834 249.818 217.991 249.863C218.146 249.909 218.235 250.072 218.19 250.227C218.155 250.345 214.738 262.099 214.767 270.954C214.768 271.116 214.637 271.248 214.475 271.248H214.474Z" fill="url(#paint16_linear_243_147)"/>
<path d="M233.737 275.597C233.673 275.597 233.609 275.577 233.555 275.534C233.428 275.434 233.407 275.249 233.507 275.122C233.599 275.004 242.806 263.3 245.957 255.315C246.016 255.165 246.186 255.088 246.338 255.15C246.489 255.21 246.563 255.38 246.504 255.531C243.32 263.596 234.061 275.368 233.968 275.485C233.91 275.559 233.824 275.597 233.737 275.597Z" fill="url(#paint17_linear_243_147)"/>
<path d="M246.788 293.593L245.113 291.224C245.019 291.092 245.051 290.908 245.183 290.815C245.315 290.721 245.499 290.753 245.592 290.885L246.993 292.866C260.057 287.138 268.144 271.51 268.225 271.352C268.298 271.208 268.475 271.149 268.62 271.224C268.764 271.297 268.821 271.474 268.748 271.619C268.666 271.779 260.396 287.767 247.006 293.5L246.788 293.593Z" fill="url(#paint18_linear_243_147)"/>
</g>
<defs>
<linearGradient id="paint0_linear_243_147" x1="600.935" y1="572.083" x2="250.198" y2="265.189" gradientUnits="userSpaceOnUse">
<stop stop-color="#DAE3FE"/>
<stop offset="1" stop-color="#E9EFFD"/>
</linearGradient>
<linearGradient id="paint1_linear_243_147" x1="119.928" y1="114.18" x2="495.443" y2="696.876" gradientUnits="userSpaceOnUse">
<stop stop-color="#4F52FF"/>
<stop offset="1" stop-color="#4042E2"/>
</linearGradient>
<linearGradient id="paint2_linear_243_147" x1="309.239" y1="540.655" x2="246.716" y2="353.085" gradientUnits="userSpaceOnUse">
<stop stop-color="#09005D"/>
<stop offset="1" stop-color="#1A0F91"/>
</linearGradient>
<linearGradient id="paint3_linear_243_147" x1="163.768" y1="529.445" x2="442.159" y2="597.161" gradientUnits="userSpaceOnUse">
<stop stop-color="#09005D"/>
<stop offset="1" stop-color="#1A0F91"/>
</linearGradient>
<linearGradient id="paint4_linear_243_147" x1="639.806" y1="129.423" x2="558.789" y2="208.679" gradientUnits="userSpaceOnUse">
<stop stop-color="#FF928E"/>
<stop offset="1" stop-color="#FE7062"/>
</linearGradient>
<linearGradient id="paint5_linear_243_147" x1="136.851" y1="327.798" x2="114.972" y2="350.65" gradientUnits="userSpaceOnUse">
<stop stop-color="#09005D"/>
<stop offset="1" stop-color="#1A0F91"/>
</linearGradient>
<linearGradient id="paint6_linear_243_147" x1="107.827" y1="385.156" x2="66.4418" y2="415.53" gradientUnits="userSpaceOnUse">
<stop stop-color="#09005D"/>
<stop offset="1" stop-color="#1A0F91"/>
</linearGradient>
<linearGradient id="paint7_linear_243_147" x1="174.689" y1="272.898" x2="202.786" y2="306.31" gradientUnits="userSpaceOnUse">
<stop stop-color="#FEBBBA"/>
<stop offset="1" stop-color="#FF928E"/>
</linearGradient>
<linearGradient id="paint8_linear_243_147" x1="314.002" y1="190.661" x2="229.457" y2="278.728" gradientUnits="userSpaceOnUse">
<stop stop-color="#FF928E"/>
<stop offset="1" stop-color="#FE7062"/>
</linearGradient>
<linearGradient id="paint9_linear_243_147" x1="207.451" y1="303.299" x2="151.291" y2="226.469" gradientUnits="userSpaceOnUse">
<stop stop-color="#FEBBBA"/>
<stop offset="1" stop-color="#FF928E"/>
</linearGradient>
<linearGradient id="paint10_linear_243_147" x1="241.806" y1="239.63" x2="239.737" y2="221.012" gradientUnits="userSpaceOnUse">
<stop stop-color="#FEBBBA"/>
<stop offset="1" stop-color="#FF928E"/>
</linearGradient>
<linearGradient id="paint11_linear_243_147" x1="230.772" y1="223.39" x2="239.89" y2="193.317" gradientUnits="userSpaceOnUse">
<stop stop-color="#FEBBBA"/>
<stop offset="1" stop-color="#FF928E"/>
</linearGradient>
<linearGradient id="paint12_linear_243_147" x1="239" y1="168.171" x2="230.523" y2="216.522" gradientUnits="userSpaceOnUse">
<stop stop-color="#09005D"/>
<stop offset="1" stop-color="#1A0F91"/>
</linearGradient>
<linearGradient id="paint13_linear_243_147" x1="240.216" y1="226.253" x2="249.334" y2="196.18" gradientUnits="userSpaceOnUse">
<stop stop-color="#FEBBBA"/>
<stop offset="1" stop-color="#FF928E"/>
</linearGradient>
<linearGradient id="paint14_linear_243_147" x1="165.69" y1="285.916" x2="122.955" y2="285.916" gradientUnits="userSpaceOnUse">
<stop stop-color="#09005D"/>
<stop offset="1" stop-color="#1A0F91"/>
</linearGradient>
<linearGradient id="paint15_linear_243_147" x1="160.503" y1="304.597" x2="194.674" y2="313.962" gradientUnits="userSpaceOnUse">
<stop stop-color="#09005D"/>
<stop offset="1" stop-color="#1A0F91"/>
</linearGradient>
<linearGradient id="paint16_linear_243_147" x1="223.758" y1="143.322" x2="210.549" y2="346.747" gradientUnits="userSpaceOnUse">
<stop stop-color="#E1473D"/>
<stop offset="1" stop-color="#E9605A"/>
</linearGradient>
<linearGradient id="paint17_linear_243_147" x1="247.807" y1="144.884" x2="234.598" y2="348.308" gradientUnits="userSpaceOnUse">
<stop stop-color="#E1473D"/>
<stop offset="1" stop-color="#E9605A"/>
</linearGradient>
<linearGradient id="paint18_linear_243_147" x1="265.7" y1="146.046" x2="252.491" y2="349.47" gradientUnits="userSpaceOnUse">
<stop stop-color="#E1473D"/>
<stop offset="1" stop-color="#E9605A"/>
</linearGradient>
<clipPath id="clip0_243_147">
<rect width="647" height="647" fill="white"/>
</clipPath>
</defs>
</svg>
