<svg width="948" height="948" viewBox="0 0 948 948" fill="none" xmlns="http://www.w3.org/2000/svg">
<g clip-path="url(#clip0_242_27)">
<path d="M948 0H0V948H948V0Z" fill="white"/>
<path d="M445.645 377.208L439.941 437.855H508.058L502.357 377.208H445.645Z" fill="#4D4D4D"/>
<path d="M521.611 441.398C521.611 442.201 520.444 442.853 519.015 442.853H428.979C427.547 442.853 426.387 442.201 426.387 441.398V434.31C426.387 433.508 427.547 432.853 428.979 432.853H519.015C520.444 432.853 521.611 433.508 521.611 434.31L521.611 441.398Z" fill="#333333"/>
<path d="M668.931 382.071C668.931 386.876 664.85 390.775 659.819 390.775H288.179C283.147 390.775 279.069 386.876 279.069 382.071V108.821C279.069 104.013 283.147 100.117 288.179 100.117H659.819C664.851 100.117 668.931 104.013 668.931 108.821V382.071Z" fill="#333333"/>
<path d="M651.716 120.725H296.285V370.167H651.716V120.725Z" fill="#D83337"/>
<path d="M399.406 184.227L391.77 180.731C392.868 174.852 389.889 168.761 384.206 166.158C377.506 163.09 369.587 166.034 366.519 172.734C365.16 175.702 364.982 178.907 365.786 181.825C363.052 183.123 360.742 185.351 359.383 188.318C356.314 195.018 359.259 202.937 365.959 206.005C371.642 208.607 378.2 206.883 381.933 202.212L393.866 207.676C394.535 199.447 396.445 191.569 399.406 184.227Z" fill="white"/>
<path d="M582.041 256.755C576.358 254.152 569.8 255.877 566.066 260.548L545.489 251.125C541.768 258.334 536.986 264.905 531.353 270.638L556.229 282.03C555.131 287.908 558.11 294 563.794 296.602C570.494 299.671 578.413 296.726 581.481 290.026C582.84 287.06 583.017 283.854 582.214 280.937C584.948 279.639 587.259 277.41 588.617 274.443C591.685 267.742 588.741 259.823 582.041 256.755Z" fill="white"/>
<path d="M416.646 270.637C411.013 264.904 406.231 258.333 402.51 251.124L381.932 260.548C378.2 255.876 371.641 254.152 365.958 256.754C359.258 259.822 356.313 267.741 359.382 274.441C360.741 277.408 363.051 279.637 365.785 280.935C364.981 283.853 365.159 287.058 366.518 290.025C369.586 296.725 377.505 299.669 384.205 296.601C389.888 293.998 392.867 287.907 391.769 282.028L416.646 270.637Z" fill="white"/>
<path d="M588.617 188.318C587.258 185.351 584.947 183.123 582.214 181.825C583.017 178.907 582.84 175.702 581.481 172.734C578.413 166.034 570.494 163.09 563.794 166.158C558.111 168.761 555.132 174.852 556.229 180.731L548.593 184.227C551.555 191.569 553.464 199.447 554.134 207.676L566.066 202.212C569.799 206.883 576.358 208.607 582.04 206.005C588.741 202.937 591.685 195.018 588.617 188.318Z" fill="white"/>
<path d="M474 290.307C515.983 290.307 550.017 256.273 550.017 214.29C550.017 172.307 515.983 138.273 474 138.273C432.017 138.273 397.983 172.307 397.983 214.29C397.983 256.273 432.017 290.307 474 290.307Z" fill="white"/>
<path d="M448.932 270.979H430.17V300.766H448.932V270.979Z" fill="white"/>
<path d="M471.899 270.979H453.136V300.766H471.899V270.979Z" fill="white"/>
<path d="M494.864 270.979H476.101V300.766H494.864V270.979Z" fill="white"/>
<path d="M517.829 270.979H499.066V300.766H517.829V270.979Z" fill="white"/>
<path d="M441.633 242.206C454.712 242.206 465.315 231.603 465.315 218.524C465.315 205.445 454.712 194.842 441.633 194.842C428.554 194.842 417.951 205.445 417.951 218.524C417.951 231.603 428.554 242.206 441.633 242.206Z" fill="#D83337"/>
<path d="M506.367 242.206C519.446 242.206 530.049 231.603 530.049 218.524C530.049 205.445 519.446 194.842 506.367 194.842C493.288 194.842 482.686 205.445 482.686 218.524C482.686 231.603 493.288 242.206 506.367 242.206Z" fill="#D83337"/>
<path d="M474 255.152L478.248 262.51L482.496 269.868H474H465.503L469.751 262.51L474 255.152Z" fill="#D83337"/>
<path d="M380.158 318.758L376.32 347.247H367.475L363.629 318.758H369.723L371.894 338.665L374.044 318.758H380.158Z" fill="white"/>
<path d="M387.151 347.248H380.893V318.759H387.151V347.248Z" fill="white"/>
<path d="M403.86 347.287H397.601C396.926 346.479 396.588 344.188 396.588 340.413V340.374L396.627 338.666C396.667 336.295 396.687 335.083 396.687 335.03C396.687 334.063 396.038 333.58 394.741 333.58V347.248H388.482V318.759H396.211C397.972 318.759 399.505 319.163 400.81 319.971C402.115 320.779 402.767 322.058 402.767 323.806V327.223C402.767 329.435 401.476 330.931 398.893 331.712C401.489 332.322 402.787 333.891 402.787 336.421L402.687 339.54C402.687 344.096 403.078 346.678 403.86 347.287ZM396.668 328.608V323.908C396.668 322.912 396.025 322.414 394.741 322.414V330.123C396.025 330.122 396.668 329.618 396.668 328.608Z" fill="white"/>
<path d="M404.674 318.758H410.933V342.678C410.933 343.247 411.283 343.532 411.986 343.532C412.675 343.532 413.019 343.247 413.019 342.678V318.758H419.278V342.34C419.278 343.983 418.595 345.254 417.231 346.155C415.867 347.056 414.119 347.506 411.987 347.506C410.013 347.506 408.301 347.102 406.851 346.294C405.4 345.487 404.675 344.182 404.675 342.38V318.758H404.674Z" fill="white"/>
<path d="M420.607 335.844H426.289V342.38C426.289 343.03 426.683 343.354 427.472 343.354C428.233 343.354 428.613 343.029 428.613 342.38V339.003C428.613 337.97 427.924 336.758 426.547 335.368C423.885 332.785 422.229 331.049 421.581 330.162C420.931 329.275 420.607 328.302 420.607 327.242V324.043C420.607 320.348 423.021 318.5 427.849 318.5C432.173 318.5 434.335 320.183 434.335 323.547V328.474H428.654V323.229C428.654 322.66 428.336 322.375 427.702 322.375C426.959 322.375 426.588 322.925 426.588 324.024L426.707 325.871C426.707 326.93 427.41 328.163 428.818 329.567C431.434 332.069 433.097 333.818 433.807 334.811C434.517 335.805 434.872 336.931 434.872 338.19V341.825C434.872 345.613 432.452 347.507 427.611 347.507C422.942 347.507 420.608 345.785 420.608 342.342V335.844H420.607Z" fill="white"/>
<path d="M443.355 347.248V318.759H451.164C452.864 318.759 454.378 319.219 455.707 320.139C457.035 321.059 457.699 322.473 457.699 324.38V341.625C457.699 343.4 457.078 344.78 455.836 345.767C454.594 346.754 453.051 347.248 451.204 347.248H443.355ZM451.401 342.08V323.905C451.401 322.911 450.805 322.413 449.613 322.413V343.592C450.805 343.592 451.401 343.088 451.401 342.08Z" fill="white"/>
<path d="M471.228 347.248H458.99V318.759H471.149V322.414H465.248V330.123H470.573V333.58H465.248V343.592H471.228L471.228 347.248Z" fill="white"/>
<path d="M485.314 322.473H481.817V347.248H475.559V322.473H472.062V318.758H485.314V322.473Z" fill="white"/>
<path d="M498.744 347.248H486.506V318.759H498.665V322.414H492.765V330.123H498.089V333.58H492.765V343.592H498.744V347.248Z" fill="white"/>
<path d="M513.465 328.712H507.783V323.07C507.783 322.606 507.495 322.374 506.919 322.374C506.316 322.374 506.014 322.606 506.014 323.07V342.837C506.014 343.301 506.316 343.532 506.919 343.532C507.495 343.532 507.783 343.301 507.783 342.837V335.804H513.465V343.036C513.465 344.387 512.803 345.47 511.478 346.285C510.154 347.099 508.658 347.506 506.988 347.506C502.167 347.506 499.757 345.798 499.757 342.38V324.043C499.757 320.348 502.167 318.5 506.988 318.5C511.307 318.5 513.465 320.183 513.465 323.547V328.712Z" fill="white"/>
<path d="M527.889 322.473H524.392V347.248H518.134V322.473H514.637V318.758H527.889V322.473Z" fill="white"/>
<path d="M541.319 347.248H529.082V318.759H541.24V322.414H535.339V330.123H540.664V333.58H535.339V343.592H541.319V347.248Z" fill="white"/>
<path d="M542.252 347.248V318.759H550.062C551.762 318.759 553.276 319.219 554.604 320.139C555.932 321.059 556.596 322.473 556.596 324.38V341.625C556.596 343.4 555.976 344.78 554.734 345.767C553.493 346.754 551.948 347.248 550.102 347.248H542.252ZM550.299 342.08V323.905C550.299 322.911 549.703 322.413 548.511 322.413V343.592C549.703 343.592 550.299 343.088 550.299 342.08Z" fill="white"/>
<path d="M570.702 341.843H565.04V318.758H570.702V341.843ZM570.702 347.248H565.04V343.095H570.702V347.248Z" fill="white"/>
<path d="M577.536 341.843H571.874V318.758H577.536V341.843ZM577.536 347.248H571.874V343.095H577.536V347.248Z" fill="white"/>
<path d="M584.371 341.843H578.708V318.758H584.371V341.843ZM584.371 347.248H578.708V343.095H584.371V347.248Z" fill="white"/>
<path d="M435.569 817.246H442.297V824.986C442.297 825.755 442.763 826.139 443.697 826.139C444.598 826.139 445.049 825.754 445.049 824.986V820.987C445.049 819.763 444.233 818.328 442.603 816.681C439.45 813.623 437.49 811.569 436.721 810.518C435.953 809.467 435.569 808.314 435.569 807.059V803.271C435.569 798.895 438.427 796.708 444.144 796.708C449.264 796.708 451.824 798.699 451.824 802.683V808.518H445.096V802.307C445.096 801.633 444.72 801.295 443.969 801.295C443.089 801.295 442.649 801.946 442.649 803.248L442.79 805.437C442.79 806.691 443.624 808.15 445.29 809.812C448.388 812.776 450.357 814.847 451.198 816.023C452.039 817.2 452.46 818.532 452.46 820.022V824.327C452.46 828.813 449.593 831.055 443.861 831.055C438.331 831.055 435.568 829.016 435.568 824.938V817.246H435.569Z" fill="#00A0C6"/>
<path d="M470.245 808.8H463.517V802.119C463.517 801.57 463.175 801.295 462.494 801.295C461.78 801.295 461.423 801.57 461.423 802.119V825.527C461.423 826.076 461.78 826.35 462.494 826.35C463.175 826.35 463.517 826.076 463.517 825.527V817.199H470.245V825.763C470.245 827.362 469.461 828.644 467.893 829.608C466.324 830.573 464.552 831.055 462.576 831.055C456.866 831.055 454.012 829.032 454.012 824.986V803.271C454.012 798.895 456.866 796.708 462.576 796.708C467.688 796.708 470.245 798.699 470.245 802.683V808.8Z" fill="#00A0C6"/>
<path d="M491.889 830.749H484.546L483.295 821.692H480.007L478.742 830.749H471.398L476.94 797.014H486.337L491.889 830.749ZM482.699 817.01L481.632 806.941L480.622 817.01H482.699Z" fill="#00A0C6"/>
<path d="M511.909 830.749H504.287L499.252 812.775V830.749H493.065V797.014H501.487L505.722 812.399V797.014H511.909V830.749Z" fill="#00A0C6"/>
<path d="M461.195 841.636L458.675 860.353H452.863L450.337 841.636H454.34L455.767 854.714L457.179 841.636H461.195Z" fill="#333333"/>
<path d="M465.789 860.353H461.678V841.636H465.789V860.353Z" fill="#333333"/>
<path d="M476.767 860.379H472.655C472.212 859.849 471.989 858.343 471.989 855.863V855.837L472.016 854.714C472.042 853.157 472.055 852.361 472.055 852.325C472.055 851.69 471.629 851.373 470.775 851.373V860.353H466.664V841.636H471.741C472.899 841.636 473.905 841.902 474.763 842.432C475.62 842.963 476.048 843.803 476.048 844.952V847.197C476.048 848.65 475.2 849.633 473.503 850.147C475.209 850.547 476.061 851.578 476.061 853.24L475.996 855.29C475.997 858.282 476.253 859.979 476.767 860.379ZM472.042 848.107V845.019C472.042 844.365 471.621 844.037 470.776 844.037V849.101C471.62 849.102 472.042 848.771 472.042 848.107Z" fill="#333333"/>
<path d="M477.302 841.636H481.413V857.351C481.413 857.725 481.644 857.912 482.105 857.912C482.558 857.912 482.784 857.725 482.784 857.351V841.636H486.895V857.129C486.895 858.208 486.447 859.043 485.55 859.635C484.654 860.226 483.505 860.522 482.104 860.522C480.808 860.522 479.683 860.256 478.73 859.725C477.778 859.195 477.301 858.338 477.301 857.154L477.302 841.636Z" fill="#333333"/>
<path d="M487.77 852.861H491.502V857.155C491.502 857.581 491.761 857.795 492.279 857.795C492.779 857.795 493.029 857.582 493.029 857.155V854.936C493.029 854.257 492.577 853.461 491.672 852.547C489.922 850.85 488.835 849.71 488.409 849.127C487.983 848.544 487.77 847.905 487.77 847.209V845.107C487.77 842.68 489.356 841.465 492.528 841.465C495.369 841.465 496.789 842.571 496.789 844.781V848.018H493.056V844.572C493.056 844.198 492.848 844.011 492.431 844.011C491.942 844.011 491.698 844.372 491.698 845.095L491.777 846.308C491.777 847.004 492.239 847.813 493.164 848.736C494.883 850.38 495.975 851.528 496.441 852.182C496.908 852.834 497.141 853.574 497.141 854.401V856.79C497.141 859.278 495.55 860.523 492.371 860.523C489.303 860.523 487.77 859.391 487.77 857.129V852.861H487.77Z" fill="#333333"/>
<path d="M418.263 733.404C417.319 733.404 416.375 733.039 415.662 732.31C414.256 730.873 414.281 728.569 415.717 727.163L438.564 704.807C440.001 703.401 442.306 703.426 443.711 704.863C445.117 706.3 445.092 708.605 443.656 710.01L420.81 732.366C420.101 733.059 419.181 733.404 418.263 733.404Z" fill="#626768"/>
<path d="M418.996 729.004L421.458 731.504C421.653 731.702 421.963 731.725 422.184 731.557L428.21 726.994C428.475 726.792 428.504 726.403 428.27 726.166L425.124 722.971L421.978 719.775C421.744 719.537 421.355 719.56 421.15 719.823L416.492 725.775C416.321 725.994 416.338 726.305 416.533 726.503L418.996 729.004Z" fill="#353B3D"/>
<path d="M369.006 670.031L368.674 676.504L405.886 723.217L409.244 720.541L369.006 670.031Z" fill="#E5E5E5"/>
<path d="M369.006 670.031L375.39 671.153L412.602 717.865L409.244 720.541L369.006 670.031Z" fill="#D2D2D2"/>
<path d="M426.165 736.3C426.239 736.393 426.231 736.524 426.146 736.591L421.111 740.602C421.026 740.67 420.897 740.649 420.823 740.555L408.418 724.984C408.344 724.891 408.352 724.759 408.437 724.691L413.472 720.681C413.556 720.613 413.686 720.634 413.76 720.728L426.165 736.3Z" fill="#D2D2D2"/>
<path d="M414.94 714.816L407.472 718.316L402.391 724.813L397.31 731.309L404.777 727.809L412.246 724.308L417.327 717.812L422.408 711.316L414.94 714.816Z" fill="#353B3D"/>
<path d="M423.31 710.597C424.407 711.975 424.18 713.981 422.802 715.08C421.425 716.177 419.418 715.95 418.32 714.572C417.223 713.195 417.449 711.188 418.827 710.09C420.206 708.993 422.212 709.219 423.31 710.597Z" fill="#353B3D"/>
<path d="M401.398 728.053C402.495 729.431 402.269 731.437 400.891 732.535C399.513 733.633 397.506 733.406 396.408 732.028C395.311 730.65 395.538 728.644 396.915 727.546C398.294 726.448 400.301 726.675 401.398 728.053Z" fill="#353B3D"/>
<path d="M428.263 736.494C429.961 738.625 429.61 741.73 427.477 743.429C425.346 745.127 422.241 744.776 420.543 742.643C418.844 740.511 419.196 737.407 421.328 735.709C423.459 734.011 426.564 734.363 428.263 736.494Z" fill="#353B3D"/>
<path d="M420.551 734.108C422.787 731.872 422.787 728.248 420.551 726.012C418.316 723.777 414.691 723.777 412.456 726.012C410.22 728.248 410.22 731.872 412.456 734.108C414.691 736.343 418.316 736.343 420.551 734.108Z" fill="#282C2E"/>
<path d="M487.886 742.976H468.445V765.009H487.886V742.976Z" fill="#54595B"/>
<path d="M497.864 767.806C497.864 768.285 497.476 768.674 496.996 768.674H459.337C458.857 768.674 458.468 768.285 458.468 767.806V763.64C458.468 763.161 458.856 762.772 459.337 762.772H496.996C497.476 762.772 497.864 763.161 497.864 763.64V767.806Z" fill="#353B3D"/>
<path d="M500.048 681.525C500.048 681.525 517.754 669.914 531.034 682.579C544.315 695.243 548.7 692.108 557.47 691.171C566.24 690.234 574.577 685.35 578.804 691.469C578.804 691.469 570.55 689.693 568.187 696C565.823 702.308 571.41 701.1 570.335 707.3C569.261 713.5 567.327 716.816 564.32 718.578C564.32 718.578 566.039 714.745 563.03 712.879C560.022 711.013 544.982 719.145 535.313 715.177C525.658 711.213 506.92 711.22 505.002 712.05C503.083 712.879 500.049 714.38 500.049 714.38L500.048 681.525Z" fill="#EA493D"/>
<path d="M523.049 748.587C523.049 749.035 522.758 749.402 522.395 749.402H433.939C433.578 749.402 433.282 749.035 433.282 748.587V684.823C433.282 684.373 433.578 684.01 433.939 684.01H522.395C522.758 684.01 523.049 684.374 523.049 684.823V748.587Z" fill="#353B3D"/>
<path d="M519.451 688.213H436.879V745.198H519.451V688.213Z" fill="white"/>
<path d="M461.528 696.226L458.183 721.053H450.474L447.123 696.226H452.433L454.325 713.574L456.199 696.226H461.528Z" fill="#00A0C6"/>
<path d="M467.622 721.053H462.168V696.226H467.622V721.053Z" fill="#00A0C6"/>
<path d="M482.182 721.087H476.729C476.14 720.384 475.846 718.386 475.846 715.097V715.062L475.88 713.573C475.915 711.507 475.933 710.451 475.933 710.405C475.933 709.563 475.367 709.141 474.236 709.141V721.053H468.782V696.226H475.517C477.052 696.226 478.388 696.579 479.525 697.282C480.661 697.986 481.23 699.1 481.23 700.624V703.602C481.23 705.53 480.105 706.834 477.855 707.515C480.116 708.046 481.248 709.414 481.248 711.619L481.162 714.337C481.161 718.306 481.5 720.557 482.182 721.087ZM475.914 704.81V700.713C475.914 699.845 475.354 699.411 474.235 699.411V706.129C475.355 706.129 475.914 705.69 475.914 704.81Z" fill="#00A0C6"/>
<path d="M482.892 696.226H488.345V717.071C488.345 717.567 488.651 717.816 489.263 717.816C489.863 717.816 490.164 717.568 490.164 717.071V696.226H495.617V716.776C495.617 718.208 495.023 719.316 493.834 720.101C492.645 720.886 491.122 721.278 489.263 721.278C487.544 721.278 486.052 720.926 484.788 720.222C483.524 719.518 482.892 718.381 482.892 716.811V696.226Z" fill="#00A0C6"/>
<path d="M496.777 711.115H501.729V716.811C501.729 717.377 502.072 717.66 502.759 717.66C503.422 717.66 503.754 717.377 503.754 716.811V713.868C503.754 712.967 503.154 711.912 501.954 710.7C499.634 708.449 498.191 706.937 497.625 706.164C497.06 705.39 496.777 704.543 496.777 703.618V700.831C496.777 697.611 498.881 696.001 503.088 696.001C506.856 696.001 508.741 697.467 508.741 700.399V704.693H503.789V700.122C503.789 699.626 503.512 699.378 502.959 699.378C502.312 699.378 501.989 699.856 501.989 700.815L502.093 702.425C502.093 703.348 502.706 704.422 503.932 705.645C506.211 707.826 507.661 709.35 508.279 710.216C508.898 711.081 509.208 712.063 509.208 713.159V716.327C509.208 719.628 507.098 721.279 502.88 721.279C498.811 721.279 496.777 719.778 496.777 716.777V711.115Z" fill="#00A0C6"/>
<path d="M455.412 739.933H452.024L449.785 731.942V739.933H447.035V724.935H450.779L452.662 731.775V724.935H455.413L455.412 739.933Z" fill="#00A0C6"/>
<path d="M456.102 737.37V727.716C456.102 725.771 457.362 724.798 459.883 724.798C462.368 724.798 463.612 725.764 463.612 727.695V737.349C463.612 738.22 463.265 738.892 462.572 739.363C461.879 739.833 460.976 740.069 459.862 740.069C457.356 740.069 456.102 739.169 456.102 737.37ZM460.4 737.527V727.309C460.4 727.009 460.223 726.859 459.867 726.859C459.498 726.859 459.313 727.009 459.313 727.309V737.527C459.313 737.828 459.498 737.977 459.867 737.977C460.223 737.977 460.4 737.827 460.4 737.527Z" fill="#00A0C6"/>
<path d="M474.573 739.933H468.131V724.935H474.531V726.859H471.425V730.917H474.228V732.738H471.425V738.009H474.573V739.933Z" fill="#00A0C6"/>
<path d="M483.495 739.933H480.107L477.868 731.942V739.933H475.118V724.935H478.862L480.745 731.775V724.935H483.496V739.933H483.495Z" fill="#00A0C6"/>
<path d="M491.088 726.891H489.247V739.933H485.953V726.891H484.112V724.935H491.088L491.088 726.891Z" fill="#00A0C6"/>
<path d="M499.852 739.954H496.558C496.203 739.528 496.025 738.322 496.025 736.334V736.314L496.046 735.414C496.067 734.166 496.078 733.528 496.078 733.5C496.078 732.991 495.736 732.737 495.053 732.737V739.933H491.759V724.935H495.827C496.755 724.935 497.561 725.147 498.249 725.573C498.935 725.999 499.279 726.671 499.279 727.592V729.39C499.279 730.555 498.599 731.342 497.239 731.754C498.606 732.075 499.289 732.901 499.289 734.233L499.237 735.875C499.235 738.273 499.441 739.633 499.852 739.954ZM496.066 730.12V727.645C496.066 727.121 495.728 726.859 495.052 726.859V730.917C495.728 730.917 496.066 730.651 496.066 730.12Z" fill="#00A0C6"/>
<path d="M509.297 724.935L507.142 730.98L506.065 734.002V739.933H502.771V734.118C502.708 733.588 502.425 732.553 501.924 731.011C501.491 729.708 500.857 727.682 500.021 724.935H503.165L504.648 730.253L506.333 724.935H509.297Z" fill="#00A0C6"/>
<path d="M498.206 691.496C498.206 691.496 510.778 688.559 510.778 685.628C510.778 682.697 507.965 678.597 503.168 679.811C498.371 681.025 489.55 692.09 498.206 691.496Z" fill="#D34237"/>
<path d="M496.673 687.393C496.673 688.915 497.906 690.148 499.428 690.148C500.949 690.148 502.182 688.915 502.182 687.393C502.182 685.872 500.949 684.638 499.428 684.638C497.907 684.638 496.673 685.872 496.673 687.393Z" fill="#353B3D"/>
<path d="M559.34 707.225C548.064 704.779 539.375 697.956 536.512 695.482C535.93 694.979 535.072 694.979 534.489 695.482C531.626 697.956 522.936 704.779 511.661 707.225C510.932 707.383 510.425 708.045 510.456 708.79C510.678 714.164 512.958 735.237 534.364 758.652C534.972 759.317 536.028 759.317 536.637 758.652C558.043 735.237 560.323 714.165 560.544 708.79C560.576 708.045 560.069 707.383 559.34 707.225Z" fill="#353B3D"/>
<path d="M556.644 709.476C546.643 707.306 538.937 701.254 536.397 699.06C535.88 698.614 535.12 698.614 534.603 699.06C532.064 701.254 524.357 707.306 514.356 709.476C513.71 709.616 513.26 710.204 513.287 710.864C513.484 715.63 515.506 734.32 534.492 755.088C535.031 755.678 535.968 755.678 536.508 755.088C555.493 734.321 557.515 715.631 557.712 710.864C557.74 710.204 557.29 709.616 556.644 709.476Z" fill="white"/>
<path d="M540.022 712.114L541.84 710.539C542.356 710.092 542.04 709.245 541.358 709.245H535.501H529.643C528.961 709.245 528.645 710.092 529.161 710.539L530.979 712.114C531.141 712.254 531.234 712.458 531.234 712.671V734.991C531.234 735.205 531.141 735.408 530.979 735.548L529.161 737.123C528.645 737.569 528.961 738.417 529.643 738.417H535.501H541.358C542.04 738.417 542.356 737.569 541.84 737.123L540.022 735.548C539.86 735.408 539.767 735.204 539.767 734.991V712.671C539.767 712.458 539.861 712.254 540.022 712.114Z" fill="#00A0C6"/>
<path d="M547.217 728.352L548.791 730.171C549.239 730.687 550.085 730.371 550.085 729.688V723.831V717.974C550.085 717.292 549.238 716.976 548.791 717.491L547.217 719.31C547.077 719.472 546.873 719.564 546.66 719.564H524.341C524.127 719.564 523.924 719.472 523.784 719.31L522.21 717.491C521.763 716.976 520.916 717.292 520.916 717.974V723.831V729.688C520.916 730.371 521.763 730.687 522.21 730.171L523.784 728.352C523.924 728.19 524.128 728.098 524.341 728.098H546.66C546.874 728.098 547.077 728.19 547.217 728.352Z" fill="#00A0C6"/>
<path d="M529.976 681.633C529.849 681.524 529.721 681.418 529.59 681.313C518.622 672.582 504.423 678.01 500.048 681.525L507.78 688.328C507.78 688.328 519.67 681.757 531.758 683.262C531.52 683.039 531.279 682.813 531.034 682.58C530.786 682.344 530.534 682.116 530.279 681.892C530.178 681.803 530.077 681.718 529.976 681.633Z" fill="#D64338"/>
<path d="M458.126 691.496C458.126 691.496 445.553 688.559 445.553 685.628C445.553 682.697 448.366 678.597 453.163 679.811C457.96 681.025 466.782 692.09 458.126 691.496Z" fill="#D34237"/>
<path d="M459.659 687.393C459.659 688.915 458.426 690.148 456.904 690.148C455.383 690.148 454.149 688.915 454.149 687.393C454.149 685.872 455.383 684.638 456.904 684.638C458.425 684.638 459.659 685.872 459.659 687.393Z" fill="#353B3D"/>
<path d="M475.366 636.847C475.366 636.847 472.686 618.533 483.729 618.733C494.771 618.935 494.412 620.545 498.272 617.928C498.272 617.928 495.68 622.185 492.748 622.96C490.071 623.668 490.353 626.583 499.924 623.564C509.495 620.545 516.185 612.293 525.539 622.155C525.539 622.155 522.928 621.752 520.168 623.363C517.409 624.973 513.36 631.011 521.642 630.206C529.925 629.401 533.973 626.583 535.814 624.771C535.814 624.771 524.948 642.885 512.62 641.677C500.293 640.47 491.269 631.413 487.867 631.01C484.465 630.607 481.287 630.518 481.287 636.299C481.287 642.08 481.287 640.47 481.287 640.47H475.366V636.847Z" fill="#EA493D"/>
<path d="M495.534 660.754H460.797V673.301H495.534V660.754Z" fill="#353B3D"/>
<path d="M478.201 694.514H478.13C476.187 694.514 474.612 692.939 474.612 690.996V669.042C474.612 667.1 476.187 665.524 478.13 665.524H478.201C480.143 665.524 481.719 667.1 481.719 669.042V690.996C481.719 692.939 480.144 694.514 478.201 694.514Z" fill="#353B3D"/>
<path d="M478.165 637.887C466.808 637.887 457.602 647.094 457.602 658.451H498.729C498.729 647.094 489.522 637.887 478.165 637.887Z" fill="#353B3D"/>
<path d="M478.165 637.887C466.808 637.887 457.602 647.094 457.602 658.451H478.165V637.887Z" fill="#353B3D"/>
<path d="M478.165 636.05C465.964 650.152 457.149 653.071 457.149 653.071V680.015C467.77 685.79 473.078 693.238 475.697 698.703V671.642C467.171 670.227 461.066 662.005 461.066 662.005C469.068 665.223 476.499 665.602 476.499 665.602H478.164H479.831C479.831 665.602 487.262 665.223 495.264 662.005C495.264 662.005 489.159 670.227 480.632 671.642V698.703C483.253 693.237 488.561 685.79 499.181 680.015V653.071C499.182 653.071 490.368 650.152 478.165 636.05Z" fill="#E5E5E5"/>
<path d="M479.832 665.602C479.832 665.602 487.263 665.223 495.265 662.005C495.265 662.005 489.16 670.227 480.633 671.642V698.703C483.254 693.237 488.562 685.79 499.182 680.015V653.071C499.182 653.071 490.367 650.152 478.166 636.05V665.602H479.832Z" fill="#A0A0A0"/>
<path d="M121.833 830.919V797.183H130.561C132.647 797.183 134.458 797.658 135.996 798.606C137.532 799.555 138.301 801.073 138.301 803.159V807.841C138.301 810.209 136.859 811.879 133.973 812.852C137.015 813.604 138.536 815.228 138.536 817.721V824.262C138.536 826.489 137.811 828.155 136.36 829.261C134.909 830.367 133.179 830.919 131.172 830.919H121.833ZM131.314 809.035V803.281C131.314 802.101 130.624 801.512 129.244 801.512V810.828C130.624 810.828 131.314 810.231 131.314 809.035ZM131.314 824.802V816.262C131.314 815.085 130.624 814.497 129.244 814.497V826.589C130.624 826.59 131.314 825.994 131.314 824.802Z" fill="#00A0C6"/>
<path d="M160.157 830.919H152.813L151.563 821.862H148.274L147.009 830.919H139.666L145.207 797.183H154.604L160.157 830.919ZM150.966 817.18L149.899 807.111L148.89 817.18H150.966Z" fill="#00A0C6"/>
<path d="M177.542 808.969H170.814V802.288C170.814 801.739 170.473 801.464 169.791 801.464C169.078 801.464 168.721 801.739 168.721 802.288V825.696C168.721 826.245 169.078 826.519 169.791 826.519C170.473 826.519 170.814 826.245 170.814 825.696V817.368H177.542V825.932C177.542 827.531 176.758 828.813 175.189 829.777C173.621 830.742 171.848 831.225 169.873 831.225C164.163 831.225 161.309 829.201 161.309 825.155V803.44C161.309 799.064 164.163 796.877 169.873 796.877C174.986 796.877 177.542 798.869 177.542 802.852V808.969Z" fill="#00A0C6"/>
<path d="M197.657 830.919H189.511L186.67 818.425V830.919H179.26V797.183H186.67V808.454L189.916 797.183H196.786L192.223 812.569L197.657 830.919Z" fill="#00A0C6"/>
<path d="M207.254 797.183H214.665V825.508C214.665 826.182 215.08 826.519 215.911 826.519C216.727 826.519 217.134 826.182 217.134 825.508V797.183H224.544V825.108C224.544 827.053 223.736 828.559 222.122 829.626C220.506 830.692 218.436 831.225 215.911 831.225C213.574 831.225 211.547 830.747 209.829 829.791C208.112 828.834 207.253 827.29 207.253 825.156V797.183H207.254Z" fill="#00A0C6"/>
<path d="M233.368 818.497V830.919H226.146V797.183H233.933C237.022 797.183 239.316 797.575 240.814 798.36C242.312 799.144 243.061 800.744 243.061 803.16V812.523C243.061 814.734 242.449 816.298 241.226 817.215C240.003 818.133 237.383 818.56 233.368 818.497ZM235.839 811.886V803.793C235.839 802.601 235.015 802.006 233.369 802.006V813.674C235.015 813.675 235.839 813.078 235.839 811.886Z" fill="#00A0C6"/>
<path d="M161.199 860.523V841.806H166.33C167.446 841.806 168.441 842.108 169.314 842.713C170.186 843.318 170.623 844.247 170.623 845.499V856.828C170.623 857.995 170.215 858.901 169.399 859.549C168.584 860.197 167.569 860.522 166.357 860.522H161.199V860.523ZM166.485 857.129V845.188C166.485 844.534 166.094 844.207 165.311 844.207V858.121C166.094 858.121 166.485 857.79 166.485 857.129Z" fill="#333333"/>
<path d="M182.578 860.523H178.504L177.81 855.498H175.985L175.283 860.523H171.209L174.284 841.806H179.497L182.578 860.523ZM177.48 852.9L176.888 847.314L176.329 852.9H177.48Z" fill="#333333"/>
<path d="M191.806 844.247H189.509V860.523H185.398V844.247H183.101V841.806H191.806L191.806 844.247Z" fill="#333333"/>
<path d="M203.697 860.523H199.623L198.929 855.498H197.104L196.402 860.523H192.328L195.403 841.806H200.617L203.697 860.523ZM198.598 852.9L198.007 847.314L197.447 852.9H198.598Z" fill="#333333"/>
<path d="M184.888 671.393H180.007V767.9H184.888V671.393Z" fill="#333333"/>
<path d="M249.499 680.62H115.397C113.024 680.62 111.083 678.679 111.083 676.306V650.109C111.083 647.737 113.024 645.795 115.397 645.795H249.499C251.872 645.795 253.813 647.737 253.813 650.109V676.306C253.813 678.679 251.872 680.62 249.499 680.62Z" fill="#00A0C6"/>
<path d="M181.339 655.023H120.568V660.224H181.339V655.023Z" fill="#333333"/>
<path d="M181.339 666.193H120.568V671.393H181.339V666.193Z" fill="#333333"/>
<path d="M196.603 651.616H193.008V674.8H196.603V651.616Z" fill="#333333"/>
<path d="M204.781 651.616H201.187V674.8H204.781V651.616Z" fill="#333333"/>
<path d="M212.96 651.616H209.365V674.8H212.96V651.616Z" fill="#333333"/>
<path d="M221.139 651.616H217.543V674.8H221.139V651.616Z" fill="#333333"/>
<path d="M235.159 655.683C235.159 657.396 233.771 658.784 232.058 658.784C230.346 658.784 228.958 657.396 228.958 655.683C228.958 653.971 230.346 652.583 232.058 652.583C233.771 652.583 235.159 653.971 235.159 655.683Z" fill="#333333"/>
<path d="M244.327 655.683C244.327 657.396 242.939 658.784 241.226 658.784C239.514 658.784 238.125 657.396 238.125 655.683C238.125 653.971 239.514 652.583 241.226 652.583C242.938 652.583 244.327 653.971 244.327 655.683Z" fill="#333333"/>
<path d="M249.499 718.22H115.397C113.024 718.22 111.083 716.279 111.083 713.906V687.709C111.083 685.337 113.024 683.395 115.397 683.395H249.499C251.872 683.395 253.813 685.336 253.813 687.709V713.906C253.813 716.279 251.872 718.22 249.499 718.22Z" fill="#00A0C6"/>
<path d="M181.339 692.622H120.568V697.823H181.339V692.622Z" fill="#333333"/>
<path d="M181.339 703.793H120.568V708.993H181.339V703.793Z" fill="#333333"/>
<path d="M196.603 689.217H193.008V712.399H196.603V689.217Z" fill="#333333"/>
<path d="M204.781 689.217H201.187V712.399H204.781V689.217Z" fill="#333333"/>
<path d="M212.96 689.217H209.365V712.399H212.96V689.217Z" fill="#333333"/>
<path d="M221.139 689.217H217.543V712.399H221.139V689.217Z" fill="#333333"/>
<path d="M235.159 693.283C235.159 694.995 233.771 696.384 232.058 696.384C230.346 696.384 228.958 694.996 228.958 693.283C228.958 691.571 230.346 690.183 232.058 690.183C233.771 690.183 235.159 691.571 235.159 693.283Z" fill="#333333"/>
<path d="M244.327 693.283C244.327 694.995 242.939 696.384 241.226 696.384C239.514 696.384 238.125 694.996 238.125 693.283C238.125 691.571 239.514 690.183 241.226 690.183C242.938 690.183 244.327 691.571 244.327 693.283Z" fill="#333333"/>
<path d="M249.499 755.82H115.397C113.024 755.82 111.083 753.879 111.083 751.506V725.309C111.083 722.937 113.024 720.995 115.397 720.995H249.499C251.872 720.995 253.813 722.936 253.813 725.309V751.506C253.813 753.878 251.872 755.82 249.499 755.82Z" fill="#00A0C6"/>
<path d="M181.339 730.221H120.568V735.422H181.339V730.221Z" fill="#333333"/>
<path d="M181.339 741.392H120.568V746.593H181.339V741.392Z" fill="#333333"/>
<path d="M196.603 726.816H193.008V749.998H196.603V726.816Z" fill="#333333"/>
<path d="M204.781 726.816H201.187V749.998H204.781V726.816Z" fill="#333333"/>
<path d="M212.96 726.816H209.365V749.998H212.96V726.816Z" fill="#333333"/>
<path d="M221.139 726.816H217.543V749.998H221.139V726.816Z" fill="#333333"/>
<path d="M235.159 730.884C235.159 732.596 233.771 733.984 232.058 733.984C230.346 733.984 228.958 732.596 228.958 730.884C228.958 729.171 230.346 727.783 232.058 727.783C233.771 727.783 235.159 729.171 235.159 730.884Z" fill="#333333"/>
<path d="M244.327 730.884C244.327 732.596 242.939 733.984 241.226 733.984C239.514 733.984 238.125 732.596 238.125 730.884C238.125 729.171 239.514 727.783 241.226 727.783C242.938 727.783 244.327 729.171 244.327 730.884Z" fill="#333333"/>
<path d="M219.432 765.173H145.463V768.11H219.432V765.173Z" fill="#333333"/>
<path d="M188.11 764.44H176.785V768.844H188.11V764.44Z" fill="#333333"/>
<path d="M328.093 614.087V860.523" stroke="#333333" stroke-width="1.4897" stroke-miterlimit="10" stroke-linecap="round" stroke-linejoin="round" stroke-dasharray="9.57 9.57"/>
<path d="M619.384 614.087V860.523" stroke="#333333" stroke-width="1.4897" stroke-miterlimit="10" stroke-linecap="round" stroke-linejoin="round" stroke-dasharray="9.57 9.57"/>
<path d="M710.98 797.014H718.39V825.339C718.39 826.013 718.806 826.35 719.637 826.35C720.452 826.35 720.86 826.013 720.86 825.339V797.014H728.271V824.938C728.271 826.883 727.462 828.389 725.848 829.456C724.232 830.522 722.162 831.055 719.637 831.055C717.3 831.055 715.273 830.578 713.555 829.621C711.838 828.664 710.979 827.12 710.979 824.986L710.98 797.014Z" fill="#00A0C6"/>
<path d="M737.093 818.328V830.75H729.871V797.014H737.658C740.747 797.014 743.041 797.406 744.539 798.191C746.037 798.975 746.786 800.575 746.786 802.991V812.354C746.786 814.565 746.174 816.129 744.951 817.046C743.728 817.963 741.109 818.39 737.093 818.328ZM739.564 811.717V803.624C739.564 802.432 738.74 801.837 737.093 801.837V813.505C738.74 813.505 739.564 812.908 739.564 811.717Z" fill="#00A0C6"/>
<path d="M748.009 830.749V797.014H757.257C759.27 797.014 761.062 797.559 762.635 798.649C764.207 799.739 764.994 801.413 764.994 803.672V824.092C764.994 826.194 764.259 827.828 762.789 828.997C761.318 830.165 759.49 830.75 757.304 830.75L748.009 830.749ZM757.537 824.63V803.108C757.537 801.931 756.831 801.343 755.419 801.343V826.421C756.831 826.42 757.537 825.823 757.537 824.63Z" fill="#00A0C6"/>
<path d="M786.544 830.749H779.201L777.95 821.692H774.662L773.397 830.749H766.054L771.596 797.014H780.992L786.544 830.749ZM777.353 817.01L776.287 806.941L775.278 817.01H777.353Z" fill="#00A0C6"/>
<path d="M803.177 801.413H799.036V830.75H791.626V801.413H787.484V797.014H803.176L803.177 801.413Z" fill="#00A0C6"/>
<path d="M819.079 830.749H804.588V797.014H818.986V801.343H811.999V810.47H818.304V814.564H811.999V826.421H819.08L819.079 830.749Z" fill="#00A0C6"/>
<path d="M721.801 857.155V845.108C721.801 842.68 723.374 841.466 726.519 841.466C729.622 841.466 731.172 842.672 731.172 845.082V857.129C731.172 858.217 730.74 859.054 729.876 859.641C729.011 860.229 727.883 860.522 726.493 860.522C723.365 860.522 721.801 859.4 721.801 857.155ZM727.166 857.351V844.599C727.166 844.225 726.944 844.038 726.5 844.038C726.038 844.038 725.808 844.225 725.808 844.599V857.351C725.808 857.725 726.038 857.912 726.5 857.912C726.944 857.912 727.166 857.725 727.166 857.351Z" fill="#333333"/>
<path d="M736.054 853.462V860.353H732.047V841.636H736.367C738.08 841.636 739.353 841.853 740.185 842.288C741.015 842.724 741.431 843.612 741.431 844.952V850.146C741.431 851.373 741.092 852.241 740.413 852.75C739.735 853.259 738.282 853.496 736.054 853.462ZM737.424 849.793V845.304C737.424 844.643 736.968 844.312 736.054 844.312V850.786C736.968 850.786 737.424 850.456 737.424 849.793Z" fill="#333333"/>
<path d="M750.215 860.353H742.175V841.636H750.163V844.038H746.286V849.102H749.785V851.373H746.286V857.952H750.215V860.353Z" fill="#333333"/>
<path d="M761.049 860.379H756.938C756.494 859.849 756.272 858.343 756.272 855.863V855.837L756.298 854.714C756.324 853.157 756.337 852.361 756.337 852.325C756.337 851.69 755.91 851.373 755.058 851.373V860.353H750.947V841.636H756.023C757.181 841.636 758.188 841.902 759.046 842.432C759.902 842.963 760.331 843.803 760.331 844.952V847.197C760.331 848.65 759.483 849.633 757.786 850.147C759.491 850.547 760.344 851.578 760.344 853.24L760.278 855.29C760.279 858.282 760.535 859.979 761.049 860.379ZM756.324 848.107V845.019C756.324 844.365 755.902 844.037 755.059 844.037V849.101C755.902 849.102 756.324 848.771 756.324 848.107Z" fill="#333333"/>
<path d="M772.718 860.353H768.643L767.95 855.328H766.125L765.423 860.353H761.349L764.423 841.636H769.637L772.718 860.353ZM767.619 852.731L767.027 847.145L766.468 852.731H767.619Z" fill="#333333"/>
<path d="M781.946 844.077H779.649V860.353H775.538V844.077H773.241V841.636H781.947V844.077H781.946Z" fill="#333333"/>
<path d="M786.775 860.353H782.664V841.636H786.775V860.353Z" fill="#333333"/>
<path d="M787.558 857.155V845.108C787.558 842.68 789.131 841.466 792.276 841.466C795.379 841.466 796.929 842.672 796.929 845.082V857.129C796.929 858.217 796.497 859.054 795.633 859.641C794.768 860.229 793.641 860.522 792.25 860.522C789.122 860.522 787.558 859.4 787.558 857.155ZM792.923 857.351V844.599C792.923 844.225 792.7 844.038 792.257 844.038C791.794 844.038 791.565 844.225 791.565 844.599V857.351C791.565 857.725 791.794 857.912 792.257 857.912C792.7 857.912 792.923 857.725 792.923 857.351Z" fill="#333333"/>
<path d="M808.258 860.353H804.029L801.237 850.381V860.353H797.804V841.636H802.476L804.826 850.172V841.636H808.258V860.353Z" fill="#333333"/>
<path d="M754.573 744.466L752.47 766.831H777.59L775.488 744.466H754.573Z" fill="#4D4D4D"/>
<path d="M782.588 768.138C782.588 768.434 782.157 768.674 781.63 768.674H748.427C747.899 768.674 747.471 768.434 747.471 768.138V765.523C747.471 765.227 747.898 764.986 748.427 764.986H781.63C782.157 764.986 782.588 765.228 782.588 765.523V768.138Z" fill="#333333"/>
<path d="M836.917 746.258C836.917 748.03 835.412 749.468 833.556 749.468H696.502C694.647 749.468 693.143 748.03 693.143 746.258V645.488C693.143 643.716 694.647 642.279 696.502 642.279H833.557C835.413 642.279 836.918 643.715 836.918 645.488L836.917 746.258Z" fill="#333333"/>
<path d="M830.569 649.879H699.492V741.868H830.569V649.879Z" fill="#00A0C6"/>
<path d="M765.07 717.252C752.865 717.252 742.971 707.358 742.971 695.153H732.895C732.895 712.923 747.3 727.329 765.07 727.329C782.841 727.329 797.246 712.923 797.246 695.153H787.17C787.17 707.357 777.276 717.252 765.07 717.252Z" fill="#333333"/>
<path d="M765.07 662.977C747.3 662.977 732.895 677.382 732.895 695.153H742.971C742.971 682.947 752.865 673.053 765.07 673.053C777.276 673.053 787.17 682.947 787.17 695.153H797.246C797.246 677.382 782.841 662.977 765.07 662.977Z" fill="white"/>
<path d="M738.014 680.442L743.267 687.932L748.522 695.422H738.014H727.505L732.76 687.932L738.014 680.442Z" fill="#333333"/>
<path d="M792.047 709.761L786.792 702.271L781.538 694.781H792.047H802.554L797.3 702.271L792.047 709.761Z" fill="white"/>
<path d="M89.269 572.63H93.035" stroke="#333333" stroke-width="1.3998" stroke-linecap="round" stroke-linejoin="round"/>
<path d="M100.579 572.63H851.192" stroke="#333333" stroke-width="1.3998" stroke-linecap="round" stroke-linejoin="round" stroke-dasharray="9.55 9.55"/>
<path d="M854.964 572.63H858.731" stroke="#333333" stroke-width="1.3998" stroke-linecap="round" stroke-linejoin="round"/>
<path d="M89.269 493.694H93.035" stroke="#333333" stroke-width="1.3998" stroke-linecap="round" stroke-linejoin="round"/>
<path d="M100.579 493.694H851.192" stroke="#333333" stroke-width="1.3998" stroke-linecap="round" stroke-linejoin="round" stroke-dasharray="9.55 9.55"/>
<path d="M854.964 493.694H858.731" stroke="#333333" stroke-width="1.3998" stroke-linecap="round" stroke-linejoin="round"/>
<path d="M251.736 538.723V554.26H242.702V512.065H252.442C256.307 512.065 259.175 512.555 261.049 513.536C262.922 514.517 263.859 516.518 263.859 519.539V531.25C263.859 534.016 263.094 535.972 261.564 537.12C260.034 538.267 256.757 538.802 251.736 538.723ZM254.825 530.454V520.332C254.825 518.842 253.795 518.095 251.736 518.095V532.691C253.795 532.691 254.825 531.946 254.825 530.454Z" fill="#4D4D4D"/>
<path d="M288.429 554.318H279.16C278.16 553.122 277.659 549.728 277.659 544.137V544.078L277.718 541.547C277.776 538.036 277.806 536.241 277.806 536.163C277.806 534.731 276.845 534.015 274.923 534.015V554.259H265.654V512.064H277.1C279.709 512.064 281.979 512.663 283.912 513.859C285.844 515.055 286.811 516.948 286.811 519.538V524.599C286.811 527.875 284.898 530.092 281.073 531.249C284.917 532.151 286.84 534.476 286.84 538.223L286.693 542.843C286.693 549.591 287.271 553.416 288.429 554.318ZM277.777 526.653V519.69C277.777 518.215 276.825 517.478 274.923 517.478V528.895C276.825 528.895 277.777 528.147 277.777 526.653Z" fill="#4D4D4D"/>
<path d="M289.606 547.05V519.891C289.606 514.418 293.151 511.681 300.243 511.681C307.236 511.681 310.734 514.399 310.734 519.832V546.991C310.734 549.444 309.759 551.332 307.81 552.656C305.86 553.98 303.319 554.642 300.185 554.642C293.132 554.642 289.606 552.111 289.606 547.05ZM301.7 547.492V518.743C301.7 517.9 301.2 517.478 300.199 517.478C299.159 517.478 298.64 517.9 298.64 518.743V547.492C298.64 548.336 299.159 548.758 300.199 548.758C301.2 548.757 301.7 548.336 301.7 547.492Z" fill="#4D4D4D"/>
<path d="M332.038 517.566H326.859V554.259H317.59V517.566H312.411V512.064H332.038V517.566Z" fill="#4D4D4D"/>
<path d="M351.929 554.259H333.803V512.064H351.811V517.478H343.072V528.895H350.958V534.015H343.072V548.846H351.929V554.259Z" fill="#4D4D4D"/>
<path d="M373.733 526.806H365.317V518.449C365.317 517.763 364.891 517.419 364.037 517.419C363.145 517.419 362.698 517.763 362.698 518.449V547.728C362.698 548.415 363.145 548.758 364.037 548.758C364.891 548.758 365.317 548.415 365.317 547.728V537.311H373.733V548.021C373.733 550.022 372.752 551.626 370.79 552.833C368.828 554.039 366.612 554.642 364.14 554.642C356.999 554.642 353.429 552.112 353.429 547.05V519.891C353.429 514.418 356.999 511.681 364.14 511.681C370.535 511.681 373.733 514.173 373.733 519.156V526.806Z" fill="#4D4D4D"/>
<path d="M395.095 517.566H389.916V554.259H380.647V517.566H375.468V512.064H395.095V517.566H395.095Z" fill="#4D4D4D"/>
<path d="M432.907 512.064L426.845 529.072L423.815 537.575V554.259H414.546V537.899C414.37 536.408 413.575 533.496 412.163 529.16C410.946 525.492 409.161 519.793 406.807 512.064H415.654L419.828 527.025L424.566 512.064H432.907Z" fill="#4D4D4D"/>
<path d="M434.025 547.05V519.891C434.025 514.418 437.57 511.681 444.662 511.681C451.655 511.681 455.153 514.399 455.153 519.832V546.991C455.153 549.444 454.178 551.332 452.229 552.656C450.279 553.98 447.738 554.642 444.604 554.642C437.551 554.642 434.025 552.111 434.025 547.05ZM446.119 547.492V518.743C446.119 517.9 445.619 517.478 444.618 517.478C443.578 517.478 443.059 517.9 443.059 518.743V547.492C443.059 548.336 443.578 548.758 444.618 548.758C445.619 548.757 446.119 548.336 446.119 547.492Z" fill="#4D4D4D"/>
<path d="M457.065 512.064H466.334V547.492C466.334 548.336 466.854 548.758 467.894 548.758C468.914 548.758 469.424 548.336 469.424 547.492V512.064H478.693V546.991C478.693 549.424 477.683 551.307 475.663 552.64C473.642 553.975 471.052 554.642 467.895 554.642C464.971 554.642 462.437 554.044 460.289 552.847C458.141 551.651 457.066 549.718 457.066 547.05L457.065 512.064Z" fill="#4D4D4D"/>
<path d="M503.587 554.318H494.318C493.318 553.122 492.817 549.728 492.817 544.137V544.078L492.876 541.547C492.935 538.036 492.965 536.241 492.965 536.163C492.965 534.731 492.003 534.015 490.081 534.015V554.259H480.812V512.064H492.258C494.867 512.064 497.138 512.663 499.07 513.859C501.002 515.055 501.969 516.948 501.969 519.538V524.599C501.969 527.875 500.056 530.092 496.231 531.249C500.075 532.151 501.998 534.476 501.998 538.223L501.851 542.843C501.851 549.591 502.429 553.416 503.587 554.318ZM492.935 526.653V519.69C492.935 518.215 491.983 517.478 490.081 517.478V528.895C491.983 528.895 492.935 528.147 492.935 526.653Z" fill="#4D4D4D"/>
<path d="M535.866 526.806H527.45V518.449C527.45 517.763 527.024 517.419 526.171 517.419C525.279 517.419 524.832 517.763 524.832 518.449V547.728C524.832 548.415 525.278 548.758 526.171 548.758C527.024 548.758 527.45 548.415 527.45 547.728V537.311H535.866V548.021C535.866 550.022 534.885 551.626 532.924 552.833C530.962 554.039 528.745 554.642 526.273 554.642C519.132 554.642 515.562 552.112 515.562 547.05V519.891C515.562 514.418 519.132 511.681 526.273 511.681C532.668 511.681 535.866 514.173 535.866 519.156V526.806Z" fill="#4D4D4D"/>
<path d="M537.809 547.05V519.891C537.809 514.418 541.355 511.681 548.446 511.681C555.44 511.681 558.937 514.399 558.937 519.832V546.991C558.937 549.444 557.962 551.332 556.013 552.656C554.063 553.98 551.522 554.642 548.387 554.642C541.335 554.642 537.809 552.111 537.809 547.05ZM549.902 547.492V518.743C549.902 517.9 549.402 517.478 548.401 517.478C547.361 517.478 546.842 517.9 546.842 518.743V547.492C546.842 548.336 547.361 548.758 548.401 548.758C549.402 548.757 549.902 548.336 549.902 547.492Z" fill="#4D4D4D"/>
<path d="M593.187 554.259H584.919V530.572L580.093 554.259H573.708L568.175 530.572V554.259H560.937V512.064H572.854L577.091 533.956L580.769 512.064H593.187L593.187 554.259Z" fill="#4D4D4D"/>
<path d="M604.28 538.723V554.26H595.247V512.065H604.987C608.85 512.065 611.72 512.555 613.594 513.536C615.467 514.517 616.404 516.518 616.404 519.539V531.25C616.404 534.016 615.639 535.972 614.109 537.12C612.578 538.267 609.301 538.802 604.28 538.723ZM607.37 530.454V520.332C607.37 518.842 606.34 518.095 604.28 518.095V532.691C606.34 532.691 607.37 531.946 607.37 530.454Z" fill="#4D4D4D"/>
<path d="M618.021 512.064H627.291V547.492C627.291 548.336 627.81 548.758 628.85 548.758C629.87 548.758 630.38 548.336 630.38 547.492V512.064H639.649V546.991C639.649 549.424 638.639 551.307 636.619 552.64C634.598 553.975 632.008 554.642 628.851 554.642C625.927 554.642 623.393 554.044 621.245 552.847C619.097 551.651 618.022 549.718 618.022 547.05L618.021 512.064Z" fill="#4D4D4D"/>
<path d="M660.983 517.566H655.805V554.259H646.536V517.566H641.356V512.064H660.983V517.566Z" fill="#4D4D4D"/>
<path d="M680.875 554.259H662.749V512.064H680.757V517.478H672.018V528.895H679.904V534.015H672.018V548.846H680.875V554.259Z" fill="#4D4D4D"/>
<path d="M705.298 554.318H696.029C695.028 553.122 694.528 549.728 694.528 544.137V544.078L694.586 541.547C694.645 538.036 694.675 536.241 694.675 536.163C694.675 534.731 693.713 534.015 691.791 534.015V554.259H682.522V512.064H693.968C696.577 512.064 698.848 512.663 700.78 513.859C702.712 515.055 703.679 516.948 703.679 519.538V524.599C703.679 527.875 701.766 530.092 697.941 531.249C701.785 532.151 703.709 534.476 703.709 538.223L703.562 542.843C703.561 549.591 704.139 553.416 705.298 554.318ZM694.645 526.653V519.69C694.645 518.215 693.693 517.478 691.791 517.478V528.895C693.693 528.895 694.645 528.147 694.645 526.653Z" fill="#4D4D4D"/>
<path d="M212.459 521.182C211.568 521.182 210.109 521.181 209.218 521.18L201.182 521.177C200.291 521.177 199.562 521.975 199.561 522.951L199.554 539.805C199.554 540.78 200.185 541.976 200.958 542.463L209.422 547.795C210.195 548.282 211.459 548.283 212.231 547.796L220.7 542.472C221.473 541.986 222.106 540.79 222.106 539.814L222.113 522.96C222.114 521.985 221.385 521.186 220.494 521.185L212.459 521.182Z" fill="#00A0C6"/>
<path d="M219.016 533.248C219.014 537.767 215.349 541.429 210.83 541.427C206.311 541.425 202.649 537.76 202.651 533.241C202.653 528.723 206.318 525.061 210.837 525.062C215.356 525.064 219.017 528.73 219.016 533.248Z" fill="white"/>
<path d="M217.223 533.248C217.222 536.777 214.359 539.636 210.831 539.635C207.302 539.633 204.442 536.771 204.443 533.242C204.445 529.713 207.307 526.853 210.836 526.855C214.365 526.857 217.225 529.719 217.223 533.248Z" fill="#00A0C6"/>
<path d="M212.387 528.642H209.28V537.847H212.387V528.642Z" fill="white"/>
<path d="M215.436 534.8L215.437 531.693L206.232 531.689L206.231 534.796L215.436 534.8Z" fill="white"/>
<path d="M176.875 521.182C175.984 521.182 174.526 521.181 173.635 521.18L165.599 521.177C164.708 521.177 163.979 521.975 163.978 522.951L163.971 539.805C163.971 540.78 164.602 541.976 165.375 542.463L173.839 547.795C174.611 548.282 175.875 548.283 176.648 547.796L185.117 542.472C185.889 541.986 186.522 540.79 186.523 539.814L186.53 522.96C186.53 521.985 185.802 521.186 184.91 521.185L176.875 521.182Z" fill="#00A0C6"/>
<path d="M183.432 533.248C183.43 537.767 179.765 541.429 175.246 541.427C170.727 541.425 167.066 537.76 167.067 533.241C167.07 528.723 170.735 525.061 175.253 525.062C179.772 525.064 183.434 528.73 183.432 533.248Z" fill="white"/>
<path d="M181.64 533.248C181.638 536.777 178.776 539.636 175.247 539.635C171.718 539.633 168.858 536.771 168.86 533.242C168.861 529.713 171.724 526.853 175.253 526.855C178.781 526.857 181.64 529.719 181.64 533.248Z" fill="#00A0C6"/>
<path d="M176.804 528.642H173.697V537.847H176.804V528.642Z" fill="white"/>
<path d="M179.852 534.8L179.854 531.693L170.648 531.689L170.647 534.796L179.852 534.8Z" fill="white"/>
<path d="M141.292 521.182C140.401 521.182 138.943 521.181 138.052 521.18L130.016 521.177C129.125 521.177 128.396 521.975 128.395 522.951L128.388 539.805C128.388 540.78 129.019 541.976 129.792 542.463L138.256 547.795C139.028 548.282 140.292 548.283 141.065 547.796L149.534 542.472C150.306 541.986 150.939 540.79 150.939 539.814L150.946 522.96C150.946 521.985 150.218 521.186 149.327 521.185L141.292 521.182Z" fill="#00A0C6"/>
<path d="M147.849 533.248C147.847 537.767 144.182 541.429 139.663 541.427C135.144 541.425 131.482 537.76 131.484 533.241C131.487 528.723 135.152 525.061 139.67 525.062C144.189 525.064 147.851 528.73 147.849 533.248Z" fill="white"/>
<path d="M146.057 533.248C146.055 536.777 143.193 539.636 139.664 539.635C136.135 539.633 133.275 536.771 133.277 533.242C133.278 529.713 136.141 526.853 139.67 526.855C143.198 526.857 146.057 529.719 146.057 533.248Z" fill="#00A0C6"/>
<path d="M141.22 528.642H138.113V537.847H141.22V528.642Z" fill="white"/>
<path d="M144.269 534.8L144.27 531.693L135.065 531.689L135.064 534.796L144.269 534.8Z" fill="white"/>
<path d="M809.957 521.182C809.066 521.182 807.608 521.181 806.717 521.18L798.681 521.177C797.79 521.177 797.061 521.975 797.06 522.951L797.053 539.805C797.052 540.78 797.684 541.976 798.457 542.463L806.921 547.795C807.693 548.282 808.957 548.283 809.73 547.796L818.199 542.472C818.971 541.986 819.604 540.79 819.604 539.814L819.611 522.96C819.611 521.985 818.883 521.186 817.992 521.185L809.957 521.182Z" fill="#00A0C6"/>
<path d="M816.514 533.248C816.513 537.767 812.847 541.429 808.328 541.427C803.81 541.425 800.147 537.76 800.149 533.241C800.152 528.723 803.817 525.061 808.335 525.062C812.854 525.064 816.516 528.73 816.514 533.248Z" fill="white"/>
<path d="M814.722 533.248C814.72 536.777 811.858 539.636 808.329 539.635C804.8 539.633 801.94 536.771 801.942 533.242C801.943 529.713 804.806 526.853 808.335 526.855C811.863 526.857 814.723 529.719 814.722 533.248Z" fill="#00A0C6"/>
<path d="M809.885 528.642H806.778V537.847H809.885V528.642Z" fill="white"/>
<path d="M812.934 534.8L812.936 531.693L803.73 531.689L803.729 534.796L812.934 534.8Z" fill="white"/>
<path d="M774.374 521.182C773.483 521.182 772.024 521.181 771.133 521.18L763.097 521.177C762.206 521.177 761.477 521.975 761.476 522.951L761.469 539.805C761.469 540.78 762.1 541.976 762.873 542.463L771.337 547.795C772.11 548.282 773.374 548.283 774.146 547.796L782.615 542.472C783.388 541.986 784.021 540.79 784.021 539.814L784.028 522.96C784.029 521.985 783.3 521.186 782.409 521.185L774.374 521.182Z" fill="#00A0C6"/>
<path d="M780.931 533.248C780.928 537.767 777.264 541.429 772.745 541.427C768.226 541.425 764.564 537.76 764.566 533.241C764.568 528.723 768.233 525.061 772.752 525.062C777.271 525.064 780.932 528.73 780.931 533.248Z" fill="white"/>
<path d="M779.138 533.248C779.137 536.777 776.274 539.636 772.746 539.635C769.217 539.633 766.357 536.771 766.358 533.242C766.36 529.713 769.222 526.853 772.751 526.855C776.28 526.857 779.14 529.719 779.138 533.248Z" fill="#00A0C6"/>
<path d="M774.302 528.642H771.195V537.847H774.302V528.642Z" fill="white"/>
<path d="M777.351 534.8L777.352 531.693L768.147 531.689L768.146 534.796L777.351 534.8Z" fill="white"/>
<path d="M738.791 521.182C737.9 521.182 736.442 521.181 735.55 521.18L727.514 521.177C726.623 521.177 725.894 521.975 725.893 522.951L725.886 539.805C725.885 540.78 726.517 541.976 727.29 542.463L735.754 547.795C736.527 548.282 737.791 548.283 738.563 547.796L747.032 542.472C747.805 541.986 748.438 540.79 748.438 539.814L748.445 522.96C748.445 521.985 747.716 521.186 746.825 521.185L738.791 521.182Z" fill="#00A0C6"/>
<path d="M745.348 533.248C745.346 537.767 741.681 541.429 737.162 541.427C732.643 541.425 728.981 537.76 728.983 533.241C728.985 528.723 732.65 525.061 737.169 525.062C741.688 525.064 745.349 528.73 745.348 533.248Z" fill="white"/>
<path d="M743.555 533.248C743.554 536.777 740.691 539.636 737.163 539.635C733.634 539.633 730.774 536.771 730.775 533.242C730.777 529.713 733.639 526.853 737.168 526.855C740.697 526.857 743.556 529.719 743.555 533.248Z" fill="#00A0C6"/>
<path d="M738.719 528.642H735.612V537.847H738.719V528.642Z" fill="white"/>
<path d="M741.767 534.8L741.769 531.693L732.563 531.689L732.562 534.796L741.767 534.8Z" fill="white"/>
<path d="M182.292 133.293L163.372 133.285C161.274 133.284 157.841 133.282 155.743 133.282L136.823 133.274C134.725 133.273 133.008 135.152 133.007 137.449L132.989 177.131C132.988 179.428 134.475 182.244 136.294 183.39L156.222 195.944C158.041 197.089 161.017 197.091 162.837 195.947L182.777 183.41C184.596 182.266 186.085 179.451 186.087 177.154L186.104 137.472C186.105 135.174 184.39 133.294 182.292 133.293ZM159.536 180.951C148.897 180.946 140.275 172.317 140.279 161.677C140.284 151.038 148.912 142.416 159.553 142.42C170.193 142.425 178.814 151.054 178.809 161.693C178.805 172.335 170.176 180.956 159.536 180.951Z" fill="#333333"/>
<path d="M159.552 146.642C151.243 146.638 144.504 153.371 144.5 161.68C144.497 169.988 151.23 176.727 159.538 176.731C167.847 176.735 174.585 170.002 174.589 161.693C174.593 153.384 167.86 146.646 159.552 146.642ZM163.201 165.345L163.197 172.524L155.883 172.521L155.886 165.342L148.707 165.339L148.71 158.025L155.89 158.028L155.893 150.849L163.208 150.852L163.205 158.031L170.383 158.034L170.38 165.349L163.201 165.345Z" fill="#333333"/>
<path d="M795.818 185.262V187.906H787.83V185.15C783.835 184.137 781.838 181.85 781.838 178.286V169.088H789.883V178.342C789.883 179.261 790.431 179.721 791.529 179.721C792.588 179.721 793.118 179.262 793.118 178.342V173.561C793.118 172.548 792.74 171.531 791.984 170.509C791.228 169.487 788.817 166.979 784.75 162.985C782.808 160.791 781.838 158.765 781.838 156.909V152.381C781.838 148.255 783.835 145.771 787.83 144.927V142.171H795.818V144.927C799.38 145.809 801.163 148.059 801.163 151.678V158.653H793.118V151.227C793.118 150.421 792.686 150.018 791.822 150.018C790.81 150.018 790.305 150.796 790.305 152.352L790.473 154.968C790.473 156.45 791.465 158.212 793.447 160.256C797.45 164.231 799.873 166.857 800.715 168.132C801.557 169.407 801.978 170.832 801.978 172.407V177.555C801.978 181.868 799.925 184.437 795.818 185.262Z" fill="#333333"/>
<path d="M791.909 198.974C773.196 198.974 757.973 183.75 757.973 165.038C757.973 146.325 773.197 131.102 791.909 131.102C810.621 131.102 825.845 146.326 825.845 165.038C825.845 183.751 810.621 198.974 791.909 198.974ZM791.909 135.819C775.797 135.819 762.69 148.927 762.69 165.038C762.69 181.149 775.797 194.256 791.909 194.256C808.02 194.256 821.127 181.149 821.127 165.038C821.127 148.927 808.02 135.819 791.909 135.819Z" fill="#333333"/>
<path d="M128.318 275.829V310.653C128.318 312.868 130.13 314.681 132.346 314.681H186.747C188.963 314.681 190.775 312.868 190.775 310.653V275.829H128.318Z" fill="#333333"/>
<path d="M188.825 264.418H152.5C151.422 264.418 150.549 263.545 150.549 262.467V261.352C150.549 260.274 149.676 259.401 148.599 259.401H132.346C130.13 259.401 128.318 261.214 128.318 263.429V274.564H134.007V270.156C134.007 269.807 134.293 269.523 134.641 269.523H184.453C184.801 269.523 185.086 269.808 185.086 270.156V274.564H190.776V266.368C190.775 265.291 189.902 264.418 188.825 264.418Z" fill="#333333"/>
<path d="M815.161 256.791H768.656C766.936 256.791 765.542 258.186 765.542 259.906V314.175C765.542 315.896 766.937 317.291 768.656 317.291H815.161C816.881 317.291 818.276 315.896 818.276 314.175V259.906C818.276 258.186 816.881 256.791 815.161 256.791ZM780.144 308.655H773.649V302.16H780.144V308.655ZM780.144 296.41H773.649V289.916H780.144V296.41ZM780.144 284.166H773.649V277.672H780.144V284.166ZM780.144 271.922H773.649V265.427H780.144V271.922ZM810.168 306.8H783.9V304.015H810.168V306.8ZM810.168 294.555H783.9V291.771H810.168V294.555ZM810.168 282.311H783.9V279.526H810.168V282.311ZM810.168 270.067H783.9V267.282H810.168V270.067Z" fill="#333333"/>
<path d="M809.233 403.887L804.041 403.905L804 392.544C803.983 387.739 800.088 383.844 795.316 383.862L788.249 383.887C783.477 383.904 779.609 387.827 779.627 392.631L779.667 403.992L774.475 404.01L774.435 392.649C774.407 384.925 780.596 378.619 788.23 378.592L795.298 378.567C802.932 378.54 809.166 384.801 809.194 392.525L809.233 403.887Z" fill="#333333"/>
<path d="M812.419 408.895C812.413 407.021 810.874 405.494 809.001 405.501L774.697 405.622C772.824 405.629 771.296 407.168 771.302 409.041L771.399 436.126C771.405 438 772.944 439.527 774.818 439.52L809.121 439.399C810.995 439.392 812.522 437.854 812.516 435.98L812.419 408.895ZM791.955 435.559C784.749 435.585 778.886 429.763 778.86 422.557C778.835 415.35 784.656 409.488 791.862 409.463C799.068 409.437 804.931 415.258 804.956 422.464C804.982 429.671 799.161 435.533 791.955 435.559Z" fill="#333333"/>
<path d="M791.868 411.172C785.606 411.194 780.548 416.288 780.57 422.551C780.593 428.812 785.686 433.87 791.949 433.848C798.21 433.826 803.269 428.731 803.247 422.47C803.224 416.208 798.13 411.15 791.868 411.172ZM794.077 429.882L791.934 429.89L789.792 429.898L790.361 420.556C789.527 420.042 788.968 419.123 788.964 418.07C788.959 416.453 790.265 415.138 791.882 415.132C793.5 415.126 794.816 416.432 794.821 418.049C794.825 419.101 794.274 420.025 793.443 420.544L794.077 429.882Z" fill="#333333"/>
<path d="M196.938 402.583C196.938 401.77 196.273 401.106 195.461 401.106L191.365 401.107C190.884 399.043 190.072 397.108 188.984 395.359L191.879 392.463C192.454 391.889 192.454 390.949 191.879 390.375L187.788 386.285C187.213 385.71 186.273 385.71 185.699 386.285L182.803 389.182C181.055 388.095 179.119 387.283 177.056 386.802L177.055 382.706C177.055 381.894 176.39 381.229 175.578 381.23L169.792 381.23C168.98 381.23 168.315 381.895 168.316 382.708L168.317 386.804C166.253 387.285 164.318 388.097 162.569 389.185L159.673 386.289C159.099 385.715 158.159 385.715 157.584 386.289L153.495 390.381C152.92 390.955 152.92 391.895 153.495 392.47L156.392 395.365C155.305 397.113 154.493 399.049 154.012 401.113L149.916 401.114C149.104 401.114 148.439 401.779 148.439 402.591L148.44 408.376C148.44 409.188 149.105 409.854 149.918 409.853L154.014 409.852C154.495 411.915 155.307 413.851 156.395 415.599L153.499 418.495C152.925 419.07 152.925 420.01 153.499 420.584L157.591 424.674C158.165 425.248 159.105 425.248 159.68 424.674L162.575 421.777C164.323 422.864 166.259 423.675 168.322 424.157L168.323 428.253C168.323 429.065 168.988 429.73 169.8 429.73L175.585 429.729C176.398 429.729 177.062 429.064 177.062 428.252L177.061 424.156C179.125 423.675 181.06 422.863 182.808 421.775L185.705 424.671C186.279 425.245 187.219 425.245 187.793 424.671L191.883 420.579C192.457 420.005 192.457 419.065 191.883 418.491L188.986 415.594C190.073 413.846 190.885 411.911 191.366 409.847L195.462 409.847C196.274 409.847 196.938 409.181 196.938 408.369V402.583ZM172.691 420.641C164.317 420.643 157.528 413.855 157.527 405.481C157.526 397.107 164.313 390.318 172.687 390.317C181.061 390.316 187.85 397.103 187.851 405.477C187.853 413.851 181.065 420.64 172.691 420.641Z" fill="#333333"/>
<path d="M172.687 392.925C165.754 392.925 160.134 398.547 160.135 405.48C160.136 412.413 165.756 418.033 172.69 418.032C179.623 418.032 185.243 412.41 185.243 405.477C185.242 398.544 179.621 392.924 172.687 392.925ZM172.69 413.927C168.024 413.928 164.241 410.146 164.24 405.479C164.24 400.814 168.022 397.03 172.688 397.03C177.354 397.03 181.137 400.811 181.137 405.478C181.138 410.144 177.356 413.926 172.69 413.927Z" fill="#333333"/>
<path d="M141.789 411.953C137.237 410.313 132.218 412.673 130.578 417.225C128.938 421.777 131.299 426.796 135.851 428.436C140.402 430.076 145.421 427.716 147.061 423.164C148.701 418.612 146.34 413.593 141.789 411.953ZM144.365 422.193C143.262 425.255 139.884 426.844 136.821 425.74C133.758 424.637 132.169 421.26 133.273 418.196C134.376 415.133 137.755 413.544 140.817 414.648C143.881 415.752 145.469 419.129 144.365 422.193Z" fill="#333333"/>
<path d="M154.803 422.712L152.114 421.743C152.286 420.274 152.211 418.811 151.91 417.407L154.497 416.19C155.01 415.949 155.232 415.332 154.991 414.819L153.274 411.166C153.033 410.653 152.415 410.43 151.903 410.672L149.316 411.888C148.426 410.761 147.347 409.77 146.106 408.966L147.075 406.277C147.267 405.744 146.988 405.151 146.455 404.958L142.657 403.59C142.124 403.398 141.531 403.677 141.338 404.21L140.369 406.899C138.901 406.727 137.438 406.802 136.034 407.102L134.817 404.516C134.576 404.003 133.959 403.78 133.446 404.022L129.793 405.74C129.28 405.981 129.057 406.598 129.298 407.111L130.515 409.698C129.388 410.588 128.397 411.667 127.593 412.908L124.904 411.939C124.37 411.747 123.777 412.026 123.584 412.559L122.216 416.357C122.024 416.89 122.303 417.484 122.836 417.676L125.525 418.645C125.353 420.113 125.428 421.576 125.728 422.981L123.142 424.198C122.628 424.439 122.406 425.056 122.648 425.569L124.366 429.222C124.607 429.735 125.225 429.957 125.738 429.716L128.324 428.5C129.215 429.627 130.294 430.618 131.534 431.422L130.565 434.111C130.373 434.645 130.652 435.238 131.186 435.43L134.983 436.798C135.516 436.99 136.11 436.711 136.302 436.178L137.271 433.489C138.74 433.661 140.202 433.586 141.607 433.286L142.823 435.872C143.065 436.385 143.682 436.608 144.195 436.367L147.848 434.649C148.36 434.408 148.583 433.791 148.342 433.277L147.125 430.691C148.253 429.8 149.243 428.722 150.048 427.481L152.737 428.449C153.27 428.641 153.863 428.363 154.056 427.829L155.424 424.032C155.616 423.498 155.336 422.904 154.803 422.712ZM148.773 423.781C146.793 429.278 140.73 432.129 135.234 430.148C129.736 428.167 126.886 422.105 128.866 416.608C130.847 411.11 136.908 408.26 142.406 410.241C147.903 412.221 150.754 418.283 148.773 423.781Z" fill="#333333"/>
</g>
<defs>
<clipPath id="clip0_242_27">
<rect width="948" height="948" fill="white"/>
</clipPath>
</defs>
</svg>
