<svg width="618" height="618" viewBox="0 0 618 618" fill="none" xmlns="http://www.w3.org/2000/svg">
<g clip-path="url(#clip0_243_12)">
<path d="M618 0H0V618H618V0Z" fill="white"/>
<path d="M487.624 485.656C474.997 498.672 463.699 506.323 455.048 512.099C370.683 568.43 274.244 552.194 244.427 546.645C196.322 537.691 155.714 531.375 120.825 499.854C41.5464 428.229 45.4025 278.814 105.981 186.257C113.164 175.283 173.651 85.6225 270.298 72.9886C272.662 72.6796 274.426 72.5037 275.971 72.3401C290.922 70.7572 383.571 62.4025 459.118 125.695C469.932 134.755 487.335 151.097 503.473 176.022C562.482 267.156 562.669 408.303 487.624 485.656Z" fill="#F4F7FA"/>
<path d="M146.134 407.722C130.806 395.921 129.189 366.598 133.865 347.158C139.324 324.46 151.169 324.343 154.04 306.36C159.387 272.879 120.519 259.558 123.233 225.366C125.452 197.415 152.271 195.711 153.319 164.646C154.076 142.229 140.476 132.342 147.565 113.048C148.171 111.398 154.962 93.7034 170.461 90.1425C186.104 86.5485 201.469 99.4548 208.91 109.647C222.665 128.487 211.396 140.863 219.505 169.18C230.546 207.733 257.97 207.613 260.232 237.681C262.101 262.51 243.831 268.318 246.45 295.807C248.881 321.333 265.518 325.6 265.508 342.929C265.485 382.796 177.399 431.793 146.134 407.722Z" fill="url(#paint0_linear_243_12)"/>
<mask id="mask0_243_12" style="mask-type:luminance" maskUnits="userSpaceOnUse" x="123" y="89" width="143" height="326">
<path d="M146.134 407.722C130.806 395.921 129.189 366.598 133.865 347.158C139.324 324.46 151.169 324.343 154.04 306.36C159.387 272.879 120.519 259.558 123.233 225.366C125.452 197.415 152.271 195.711 153.319 164.646C154.076 142.229 140.476 132.342 147.565 113.048C148.171 111.398 154.962 93.7034 170.461 90.1425C186.104 86.5485 201.469 99.4548 208.91 109.647C222.665 128.487 211.396 140.863 219.505 169.18C230.546 207.733 257.97 207.613 260.232 237.681C262.101 262.51 243.831 268.318 246.45 295.807C248.881 321.333 265.518 325.6 265.508 342.929C265.485 382.796 177.399 431.793 146.134 407.722Z" fill="white"/>
</mask>
<g mask="url(#mask0_243_12)">
<path opacity="0.7" d="M168.152 427.147C168.034 427.147 167.919 427.083 167.859 426.971C167.773 426.809 167.834 426.608 167.996 426.522C183.062 418.49 195.786 407.659 205.815 394.33C215.314 381.704 225.135 368.65 225.082 351.955C225.042 339.334 219.408 332.299 212.274 323.392C205.321 314.711 196.669 303.907 191.103 284.297C187.924 273.1 183.969 259.166 188.157 242.769C190.597 233.215 194.579 227.937 198.092 223.28C201.764 218.412 204.665 214.567 204.414 207.521C204.004 196.015 198.119 188.356 191.305 179.488C187.093 174.006 182.737 168.338 178.998 161.027C168.473 140.446 169.267 113.42 181.358 80.7006C181.421 80.5284 181.611 80.4399 181.785 80.5044C181.956 80.5679 182.045 80.7589 181.981 80.931C169.957 113.469 169.152 140.315 179.589 160.724C183.301 167.982 187.637 173.625 191.831 179.083C198.716 188.042 204.661 195.78 205.078 207.497C205.337 214.779 202.226 218.904 198.623 223.68C195.147 228.287 191.208 233.509 188.801 242.933C184.657 259.157 188.586 272.996 191.742 284.116C197.272 303.596 205.878 314.342 212.793 322.977C220.007 331.985 225.706 339.101 225.747 351.953C225.8 368.872 215.912 382.016 206.348 394.727C196.259 408.137 183.461 419.03 168.308 427.108C168.259 427.134 168.205 427.147 168.152 427.147Z" fill="white"/>
<path opacity="0.7" d="M187.047 251.004C186.964 251.004 186.88 250.973 186.816 250.91C162.478 227.287 151.475 205.826 146.531 191.983C141.165 176.959 141.574 167.384 141.579 167.289C141.587 167.106 141.747 166.959 141.927 166.974C142.11 166.983 142.251 167.139 142.242 167.322C142.237 167.416 141.839 176.891 147.173 191.803C152.096 205.57 163.051 226.917 187.279 250.434C187.41 250.562 187.413 250.772 187.286 250.904C187.22 250.97 187.133 251.004 187.047 251.004Z" fill="white"/>
<path opacity="0.7" d="M197.124 300.022C197.023 300.022 196.923 299.976 196.859 299.889C196.748 299.742 196.778 299.534 196.925 299.424C229.495 274.984 238.932 246.629 241.112 227.146C243.477 206.026 238.065 190.481 238.01 190.327C237.949 190.154 238.039 189.964 238.212 189.902C238.386 189.841 238.575 189.931 238.637 190.104C238.692 190.26 244.149 205.923 241.776 227.189C239.586 246.811 230.096 275.363 197.324 299.955C197.264 300 197.194 300.022 197.124 300.022Z" fill="white"/>
<path opacity="0.7" d="M216.755 381.131C216.72 381.131 216.684 381.125 216.648 381.113C179.817 368.634 161.179 347.93 152.031 332.759C142.109 316.306 140.892 302.61 140.881 302.473C140.866 302.291 141.002 302.131 141.185 302.115C141.373 302.107 141.528 302.237 141.543 302.42C141.554 302.555 142.765 316.123 152.619 332.448C161.712 347.513 180.239 368.076 216.862 380.484C217.035 380.543 217.129 380.731 217.069 380.905C217.023 381.044 216.894 381.131 216.755 381.131Z" fill="white"/>
<path opacity="0.7" d="M178.21 157.387C178.125 157.387 178.04 157.355 177.975 157.29C177.845 157.16 177.846 156.95 177.975 156.82C199.874 134.958 203.407 111.362 202.514 95.417C201.547 78.1372 195.329 65.8829 195.266 65.7612C195.182 65.5983 195.246 65.3979 195.409 65.3141C195.572 65.2303 195.773 65.2934 195.856 65.4573C195.92 65.5803 202.202 77.9604 203.177 95.3797C204.077 111.46 200.517 135.254 178.445 157.291C178.38 157.355 178.295 157.387 178.21 157.387Z" fill="white"/>
</g>
<path d="M242.468 450.847C245.757 450.266 252.401 446.103 253.685 444.304C262.232 432.329 279.69 410.949 278.058 395.483C277.779 392.842 265.828 390.931 264.057 388.577C256.733 385.51 254.002 384.9 248.472 378.563C232.145 359.856 265.638 321.757 224.11 310.834C193.691 302.834 168.845 314.336 169.914 267.64C170.983 220.944 130.142 137.833 82.496 172.58C55.1514 192.521 85.6201 230.777 72.4587 260.645C59.952 289.028 72.7714 311.324 103.016 326.609C133.261 341.894 118.11 355.424 110.765 382.186C101.943 414.334 150.922 417.688 173.667 417.308C191.982 417.002 238.827 428.579 242.468 450.847Z" fill="url(#paint1_linear_243_12)"/>
<mask id="mask1_243_12" style="mask-type:luminance" maskUnits="userSpaceOnUse" x="67" y="164" width="212" height="287">
<path d="M242.468 450.847C245.757 450.266 252.401 446.103 253.685 444.304C262.232 432.329 279.69 410.949 278.058 395.483C277.779 392.842 265.828 390.931 264.057 388.577C256.733 385.51 254.002 384.9 248.472 378.563C232.145 359.856 265.638 321.757 224.11 310.834C193.691 302.834 168.845 314.336 169.914 267.64C170.983 220.944 130.142 137.833 82.496 172.58C55.1514 192.521 85.6201 230.777 72.4587 260.645C59.952 289.028 72.7714 311.324 103.016 326.609C133.261 341.894 118.11 355.424 110.765 382.186C101.943 414.334 150.922 417.688 173.667 417.308C191.982 417.002 238.827 428.579 242.468 450.847Z" fill="white"/>
</mask>
<g mask="url(#mask1_243_12)">
<g opacity="0.3">
<path d="M265.519 421.249L265.8 420.597C165.346 377.274 101.48 279.045 94.9606 157.836L94.251 157.874C97.3411 215.319 114.009 269.654 142.452 315.006C172.355 362.685 214.911 399.423 265.519 421.249Z" fill="#FCFDFE"/>
<path d="M105.565 395.127C133.534 384.493 181.025 382.039 211.431 389.656L211.603 388.967C181.078 381.32 133.397 383.786 105.313 394.463L105.565 395.127Z" fill="#FCFDFE"/>
<path d="M245.897 412.519L246.348 411.969C233.761 401.624 226.888 385.312 225.92 363.488C225.21 347.486 227.632 328.947 233.12 308.386L232.434 308.203C226.928 328.834 224.497 347.445 225.21 363.519C226.188 385.553 233.148 402.039 245.897 412.519Z" fill="#FCFDFE"/>
<path d="M138.665 308.412L139.144 307.887C116.421 287.166 84.3756 282.826 61.4937 282.834L61.4942 283.544C84.2504 283.536 116.111 287.844 138.665 308.412Z" fill="#FCFDFE"/>
<path d="M109.736 244.235L110.442 244.15C106.34 209.75 124.792 178.414 136.155 162.797L135.581 162.379C124.156 178.08 105.606 209.593 109.736 244.235Z" fill="#FCFDFE"/>
</g>
</g>
<path d="M345.549 524.877L79.6982 522.562V529.413C79.6982 531.272 80.8578 532.853 82.4281 533.135L157.603 546.625C158.495 546.785 159.4 546.828 160.3 546.752L342.66 531.371C344.287 531.233 345.548 529.647 345.548 527.737L345.549 524.877Z" fill="url(#paint2_linear_243_12)"/>
<path d="M259.968 513.772L82.6243 526.304C79.4509 526.529 76.8706 524.146 76.8706 520.981V394.202C76.8706 391.037 79.4509 388.472 82.6243 388.472H259.968C262.583 388.472 264.696 390.791 264.696 393.651V508.258C264.696 511.119 262.583 513.587 259.968 513.772Z" fill="url(#paint3_linear_243_12)"/>
<path d="M262.796 513.772L85.452 526.304C82.2785 526.529 79.6982 524.146 79.6982 520.981V394.202C79.6982 391.037 82.2785 388.472 85.452 388.472H262.796C265.41 388.472 267.524 390.791 267.524 393.651V508.258C267.524 511.119 265.41 513.587 262.796 513.772Z" fill="url(#paint4_linear_243_12)"/>
<path d="M257.271 505.692L92.0937 516.578C89.5113 516.748 87.4126 514.792 87.4126 512.209V401.213C87.4126 398.63 89.5113 396.527 92.0937 396.516L257.271 395.832C259.428 395.823 261.172 397.724 261.172 400.077V501.174C261.172 503.527 259.428 505.55 257.271 505.692Z" fill="white"/>
<path d="M180.387 391.939C180.387 393.117 179.474 394.075 178.347 394.079C177.219 394.082 176.303 393.128 176.303 391.947C176.303 390.766 177.219 389.809 178.347 389.808C179.474 389.807 180.387 390.761 180.387 391.939Z" fill="white"/>
<path d="M258.371 513.203L79.6982 526.395L157.603 540.376C158.495 540.536 159.4 540.578 160.3 540.502L345.549 524.877L261.213 513.293C260.27 513.163 259.318 513.133 258.371 513.203Z" fill="url(#paint5_linear_243_12)"/>
<path opacity="0.3" d="M105.77 526.727L254.52 515.581L300.556 521.853L153.088 533.768L105.77 526.727Z" fill="url(#paint6_linear_243_12)"/>
<path d="M261.193 417.294L87.3926 419.453V399.819C87.3926 397.617 89.1773 395.832 91.3789 395.832H257.207C259.408 395.832 261.193 397.617 261.193 399.819L261.193 417.294Z" fill="url(#paint7_linear_243_12)"/>
<path d="M196.355 469.893L98.0918 473.954V427.537L196.355 425.889V469.893Z" fill="url(#paint8_linear_243_12)"/>
<path d="M252.265 467.583L202.15 469.654V425.792L252.265 424.951V467.583Z" fill="url(#paint9_linear_243_12)"/>
<path d="M252.264 499.228L98.0918 508.407V480.015L252.264 473.15V499.228Z" fill="url(#paint10_linear_243_12)"/>
<path d="M99.8539 406.805C99.8539 408.019 98.7776 409.01 97.4483 409.019C96.1172 409.029 95.0366 408.05 95.0366 406.833C95.0366 405.617 96.117 404.625 97.4483 404.619C98.7776 404.613 99.8539 405.592 99.8539 406.805Z" fill="#9D3060"/>
<path d="M108.553 406.755C108.553 407.963 107.487 408.949 106.17 408.958C104.851 408.968 103.78 407.993 103.78 406.782C103.78 405.571 104.851 404.585 106.17 404.579C107.487 404.573 108.553 405.547 108.553 406.755Z" fill="#9D3060"/>
<path d="M117.172 406.705C117.172 407.907 116.116 408.889 114.811 408.898C113.504 408.907 112.443 407.937 112.443 406.732C112.443 405.527 113.504 404.544 114.811 404.538C116.116 404.532 117.172 405.502 117.172 406.705Z" fill="#9D3060"/>
<path opacity="0.48" d="M220.068 479C206.396 471.644 195.646 480.965 185.272 471.769C178.982 466.193 182.07 462.035 174.331 453.703C165.759 444.475 160.178 447.577 151.563 439.272C140.671 428.77 146.119 420.599 136.736 413.059C125.354 403.912 113.078 412.378 102.243 403.606C97.5698 399.822 95.0056 394.322 93.6665 388.472H83.0648C81.2069 388.472 79.6982 389.977 79.6982 391.835V523.253C79.6982 525.111 81.2069 526.509 83.0648 526.377L263.807 513.548C264.694 513.485 265.481 512.967 265.986 512.216C252.755 511.734 244.626 507.299 239.43 502.713C229.266 493.743 231.029 484.898 220.068 479Z" fill="white"/>
<path d="M453.578 522.344C449.467 520.981 446.394 517.492 445.527 513.203L439.544 483.589L388.36 485.407L382.061 516.258C381.179 520.579 384.71 524.913 388.777 526.505L410.192 534.883C414.174 536.442 418.456 537.062 422.711 536.698L467.967 532.827C469.29 532.714 470.351 531.674 470.505 530.339C470.659 529.005 471.586 527.507 470.325 527.089L453.578 522.344Z" fill="#97A6B7"/>
<path d="M454.084 520.543C449.978 519.197 446.908 515.752 446.042 511.517L440.065 482.276L390.129 484.072L383.836 514.535C382.954 518.802 385.286 523.08 389.349 524.652L410.742 532.925C414.721 534.464 418.998 535.077 423.249 534.717L468.46 530.894C469.781 530.782 470.841 529.755 470.995 528.438C471.149 527.121 470.354 525.877 469.094 525.464L454.084 520.543Z" fill="url(#paint11_linear_243_12)"/>
<path d="M535.821 463V330.212C535.821 327.489 533.577 325.172 530.827 325.061L302.696 315.89C299.224 315.751 296.375 318.15 296.375 321.222V467.972L535.821 463Z" fill="url(#paint12_linear_243_12)"/>
<path d="M303.432 341.645V456.277C303.432 459.139 306.077 461.405 309.3 461.313L525.811 455.155C528.395 455.082 530.504 452.934 530.504 450.382V348.143L303.432 341.645Z" fill="white"/>
<path d="M530.504 348.143V336.41C530.504 333.91 528.438 331.788 525.907 331.693L309.18 323.608C306.022 323.49 303.432 325.687 303.432 328.49V341.645L530.504 348.143Z" fill="url(#paint13_linear_243_12)"/>
<path d="M319.274 332.72C319.274 333.705 318.377 334.475 317.267 334.44C316.157 334.405 315.255 333.576 315.255 332.588C315.255 331.6 316.157 330.83 317.267 330.868C318.377 330.906 319.274 331.735 319.274 332.72Z" fill="#9D3060"/>
<path d="M327.924 333.004C327.924 333.983 327.037 334.749 325.941 334.714C324.843 334.68 323.952 333.855 323.952 332.873C323.952 331.892 324.843 331.126 325.941 331.163C327.037 331.201 327.924 332.025 327.924 333.004Z" fill="#9D3060"/>
<path d="M336.473 333.285C336.473 334.258 335.596 335.02 334.512 334.985C333.428 334.951 332.547 334.132 332.547 333.156C332.547 332.179 333.428 331.418 334.512 331.455C335.596 331.492 336.473 332.311 336.473 333.285Z" fill="#9D3060"/>
<path d="M296.375 467.972V497.279C296.375 500.351 299.224 502.744 302.696 502.597L530.827 492.952C533.577 492.836 535.821 490.514 535.821 487.791V462.148L296.375 467.972Z" fill="url(#paint14_linear_243_12)"/>
<path d="M445.852 405.891L320.056 406.572V354.046L445.852 356.334V405.891Z" fill="url(#paint15_linear_243_12)"/>
<path d="M516.886 405.506L453.232 405.851V356.469L516.886 357.627V405.506Z" fill="url(#paint16_linear_243_12)"/>
<path d="M516.886 441.045L320.056 445.561V413.431L516.886 411.758V441.045Z" fill="url(#paint17_linear_243_12)"/>
<g opacity="0.48">
<path d="M511.112 445.856C492.375 439.527 476.874 452.436 463.406 442.272C448.222 430.814 460.494 408.8 446.449 395.832C426.938 377.816 387.931 405.755 370.99 388.771C359.342 377.094 373.082 358.4 363.219 338.734C358.204 328.736 348.807 321.919 337.401 317.285L302.696 315.89C299.225 315.751 296.376 318.149 296.376 321.221V467.971V497.279C296.376 500.35 299.225 502.743 302.696 502.597L530.827 492.952C533.577 492.836 535.821 490.513 535.821 487.79V468.842C527.787 454.639 518.918 448.493 511.112 445.856Z" fill="white"/>
</g>
<path d="M344.377 98.1967C379.215 100.023 408.663 131.196 410.158 167.833C410.3 171.324 410.187 174.736 409.824 178.05C415.865 175.682 422.549 174.547 429.631 174.918C458.382 176.425 482.69 202.158 483.923 232.393C485.095 261.124 465.015 283.58 438.346 284.457C436.945 284.498 435.527 284.486 434.097 284.411L195.811 271.118C182.389 267.844 171.808 255.045 171.206 240.297C170.529 223.68 182.791 210.873 198.597 211.701C201.947 211.877 205.188 212.649 208.222 213.92C206.84 208.722 206.002 203.329 205.778 197.818C204.233 159.943 232.172 130.775 268.178 132.662C274.868 133.012 281.375 134.418 287.537 136.704C295.871 112.817 317.858 96.8069 344.377 98.1967Z" fill="#00A0C6"/>
<path d="M353.906 92.6034C388.744 94.4292 418.192 125.603 419.686 162.239C419.829 165.731 419.716 169.142 419.352 172.457C425.394 170.089 432.078 168.954 439.159 169.325C467.91 170.832 492.218 196.564 493.452 226.799C494.624 255.531 474.543 277.987 447.874 278.864C446.474 278.904 445.056 278.892 443.626 278.817L205.339 265.524C191.917 262.251 181.336 249.451 180.735 234.703C180.057 218.087 192.319 205.28 208.125 206.108C211.475 206.284 214.716 207.056 217.751 208.326C216.368 203.128 215.531 197.736 215.306 192.225C213.761 154.35 241.7 125.181 277.706 127.068C284.397 127.419 290.903 128.824 297.065 131.11C305.399 107.224 327.386 91.2136 353.906 92.6034Z" fill="url(#paint18_linear_243_12)"/>
<path d="M196.302 286.923C209.307 287.605 220.305 299.247 220.863 312.923C220.916 314.224 220.874 315.499 220.737 316.738C222.992 315.854 225.488 315.429 228.131 315.568C238.864 316.13 247.937 325.735 248.397 337.023C248.835 347.753 241.34 356.136 231.384 356.461C230.861 356.475 230.333 356.473 229.798 356.445L140.841 351.482C135.828 350.259 131.875 345.482 131.651 339.976C131.398 333.773 135.977 328.991 141.881 329.301C143.128 329.366 144.34 329.653 145.47 330.127C144.956 328.184 144.642 326.174 144.558 324.118C143.982 309.979 154.411 299.086 167.856 299.79C170.355 299.921 172.781 300.448 175.083 301.301C178.195 292.382 186.4 286.404 196.302 286.923Z" fill="#413974"/>
<path d="M202.235 282.42C215.24 283.102 226.238 294.744 226.796 308.42C226.849 309.721 226.807 310.996 226.67 312.235C228.925 311.351 231.421 310.927 234.064 311.065C244.797 311.628 253.87 321.232 254.33 332.52C254.768 343.25 247.273 351.633 237.317 351.958C236.794 351.972 236.266 351.97 235.731 351.942L146.773 346.979C141.76 345.756 137.808 340.979 137.583 335.473C137.33 329.27 141.91 324.489 147.814 324.798C149.061 324.863 150.272 325.15 151.403 325.625C150.889 323.682 150.575 321.671 150.491 319.616C149.914 305.476 160.343 294.583 173.789 295.288C176.288 295.419 178.714 295.946 181.015 296.799C184.128 287.879 192.333 281.901 202.235 282.42Z" fill="#F8F8F8"/>
<path d="M468.192 227.611C481.197 228.293 492.194 239.935 492.752 253.611C492.805 254.912 492.759 256.187 492.627 257.427C494.882 256.543 497.378 256.118 500.02 256.256C510.754 256.819 519.827 266.424 520.287 277.711C520.725 288.436 513.23 296.82 503.274 297.15C502.751 297.164 502.223 297.162 501.688 297.134L412.725 292.17C407.718 290.947 403.765 286.17 403.54 280.665C403.287 274.461 407.867 269.68 413.766 269.989C415.018 270.055 416.229 270.341 417.36 270.816C416.846 268.873 416.532 266.862 416.448 264.807C415.871 250.667 426.3 239.774 439.746 240.479C442.245 240.61 444.671 241.137 446.972 241.99C450.085 233.07 458.29 227.092 468.192 227.611Z" fill="#6F6995"/>
<path d="M473.833 222.988C486.838 223.669 497.836 235.312 498.394 248.988C498.447 250.289 498.4 251.564 498.268 252.803C500.523 251.919 503.019 251.494 505.662 251.633C516.396 252.195 525.468 261.8 525.929 273.088C526.366 283.813 518.872 292.196 508.915 292.526C508.393 292.54 507.864 292.539 507.329 292.51L418.367 287.547C413.359 286.324 409.406 281.547 409.182 276.041C408.929 269.838 413.509 265.056 419.408 265.366C420.66 265.431 421.871 265.718 423.001 266.193C422.488 264.249 422.174 262.239 422.09 260.183C421.513 246.044 431.942 235.151 445.387 235.855C447.886 235.986 450.313 236.513 452.614 237.366C455.726 228.447 463.931 222.469 473.833 222.988Z" fill="url(#paint19_linear_243_12)"/>
<path d="M277.031 267.831C275.719 267.831 274.655 266.767 274.655 265.456V258.033C274.655 256.721 275.719 255.657 277.031 255.657C278.342 255.657 279.406 256.721 279.406 258.033V265.456C279.406 266.767 278.342 267.831 277.031 267.831Z" fill="#413974"/>
<path d="M277.031 420.927C275.719 420.927 274.655 419.863 274.655 418.552V403.242C274.655 401.93 275.719 400.867 277.031 400.867C278.342 400.867 279.406 401.93 279.406 403.242V418.552C279.406 419.863 278.342 420.927 277.031 420.927ZM277.031 390.308C275.719 390.308 274.655 389.244 274.655 387.932V372.623C274.655 371.311 275.719 370.247 277.031 370.247C278.342 370.247 279.406 371.311 279.406 372.623V387.932C279.406 389.244 278.342 390.308 277.031 390.308ZM277.031 359.688C275.719 359.688 274.655 358.625 274.655 357.313V342.003C274.655 340.691 275.719 339.628 277.031 339.628C278.342 339.628 279.406 340.691 279.406 342.003V357.313C279.406 358.625 278.342 359.688 277.031 359.688ZM277.031 329.069C275.719 329.069 274.655 328.006 274.655 326.694V311.384C274.655 310.073 275.719 309.009 277.031 309.009C278.342 309.009 279.406 310.073 279.406 311.384V326.694C279.406 328.006 278.342 329.069 277.031 329.069ZM277.031 298.45C275.719 298.45 274.655 297.387 274.655 296.075V280.765C274.655 279.453 275.719 278.39 277.031 278.39C278.342 278.39 279.406 279.453 279.406 280.765V296.075C279.406 297.387 278.342 298.45 277.031 298.45Z" fill="#413974"/>
<path d="M279.406 443.707L264.689 443.415C263.377 443.389 262.335 442.304 262.361 440.993C262.386 439.697 263.445 438.665 264.734 438.665C264.751 438.665 264.767 438.665 264.783 438.665L274.655 438.861V433.861C274.655 432.549 275.719 431.486 277.03 431.486C278.342 431.486 279.406 432.549 279.406 433.861V443.707Z" fill="#413974"/>
<path d="M385.936 274.957C384.625 274.957 383.561 273.894 383.561 272.582V265.159C383.561 263.847 384.625 262.783 385.936 262.783C387.248 262.783 388.312 263.847 388.312 265.159V272.582C388.312 273.894 387.248 274.957 385.936 274.957Z" fill="#413974"/>
<path d="M385.936 302.926C384.625 302.926 383.561 301.862 383.561 300.55V286.566C383.561 285.254 384.625 284.19 385.936 284.19C387.248 284.19 388.312 285.254 388.312 286.566V300.55C388.312 301.862 387.248 302.926 385.936 302.926Z" fill="#413974"/>
<path d="M385.936 324.333C384.625 324.333 383.561 323.269 383.561 321.958V314.535C383.561 313.223 384.625 312.159 385.936 312.159C387.248 312.159 388.312 313.223 388.312 314.535V321.958C388.312 323.269 387.248 324.333 385.936 324.333Z" fill="#413974"/>
<path d="M453.232 284.459C451.921 284.459 450.857 283.395 450.857 282.083V274.66C450.857 273.348 451.921 272.285 453.232 272.285C454.544 272.285 455.608 273.348 455.608 274.66V282.083C455.608 283.395 454.544 284.459 453.232 284.459Z" fill="#413974"/>
<path d="M453.232 307.281C451.921 307.281 450.857 306.217 450.857 304.905V293.494C450.857 292.182 451.921 291.119 453.232 291.119C454.544 291.119 455.608 292.182 455.608 293.494V304.905C455.608 306.217 454.544 307.281 453.232 307.281Z" fill="#413974"/>
<path d="M453.232 326.115C451.921 326.115 450.857 325.051 450.857 323.739V316.316C450.857 315.004 451.921 313.941 453.232 313.941C454.544 313.941 455.608 315.004 455.608 316.316V323.739C455.608 325.051 454.544 326.115 453.232 326.115Z" fill="#413974"/>
<path d="M202.15 346.144C200.838 346.144 199.774 345.081 199.774 343.769V336.346C199.774 335.034 200.838 333.971 202.15 333.971C203.462 333.971 204.525 335.034 204.525 336.346V343.769C204.525 345.081 203.462 346.144 202.15 346.144Z" fill="#413974"/>
<path d="M202.15 368.966C200.838 368.966 199.774 367.903 199.774 366.591V355.18C199.774 353.868 200.838 352.805 202.15 352.805C203.462 352.805 204.525 353.868 204.525 355.18V366.591C204.525 367.903 203.462 368.966 202.15 368.966Z" fill="#413974"/>
<path d="M202.15 387.8C200.838 387.8 199.774 386.737 199.774 385.425V378.002C199.774 376.69 200.838 375.627 202.15 375.627C203.462 375.627 204.525 376.69 204.525 378.002V385.425C204.525 386.737 203.462 387.8 202.15 387.8Z" fill="#413974"/>
<g opacity="0.5">
<path d="M369.076 133.313L326.305 129.821C322.404 129.502 319.163 132.76 319.068 137.097L318.78 150.391C318.686 154.728 321.774 158.493 325.676 158.799L368.449 162.159C372.312 162.463 375.517 159.214 375.611 154.902L375.897 141.69C375.991 137.378 372.938 133.628 369.076 133.313Z" fill="white"/>
<path d="M361.771 181.577L331.767 179.284C329.738 179.129 328.052 180.825 328.004 183.072L327.677 198.1C327.629 200.347 329.235 202.291 331.265 202.441L361.271 204.66C363.286 204.809 364.96 203.116 365.008 200.877L365.333 185.909C365.381 183.67 363.787 181.731 361.771 181.577Z" fill="white"/>
<path d="M404.645 184.853L374.914 182.581C372.903 182.427 371.233 184.116 371.184 186.353L370.859 201.313C370.811 203.55 372.403 205.484 374.414 205.633L404.146 207.832C406.144 207.98 407.802 206.293 407.851 204.065L408.174 189.164C408.222 186.936 406.643 185.006 404.645 184.853Z" fill="white"/>
<path d="M276.252 175.341L246.248 173.048C244.218 172.893 242.533 174.589 242.484 176.837L242.158 191.864C242.109 194.112 243.715 196.055 245.745 196.205L275.751 198.425C277.767 198.574 279.44 196.88 279.489 194.642L279.814 179.674C279.862 177.435 278.268 175.495 276.252 175.341Z" fill="white"/>
<path d="M319.126 178.618L289.395 176.346C287.384 176.192 285.714 177.881 285.665 180.118L285.34 195.077C285.292 197.314 286.884 199.248 288.895 199.397L318.627 201.597C320.625 201.744 322.283 200.058 322.331 197.829L322.655 182.929C322.703 180.701 321.124 178.771 319.126 178.618Z" fill="white"/>
<path d="M447.131 188.101L417.669 185.849C415.676 185.697 414.021 187.378 413.973 189.605L413.65 204.496C413.601 206.723 415.178 208.648 417.171 208.795L446.634 210.975C448.614 211.121 450.257 209.442 450.305 207.224L450.627 192.391C450.676 190.173 449.111 188.252 447.131 188.101Z" fill="white"/>
<path d="M347.397 178.314L346.054 178.211L346.4 162.258L347.743 162.363L347.397 178.314Z" fill="white"/>
<path d="M304.393 175.017L303.038 174.913L303.126 170.855C303.173 168.671 304.814 167.018 306.783 167.171L336.45 169.47C337.664 169.564 338.675 168.542 338.704 167.191L338.824 161.665L340.169 161.77L340.049 167.296C340.002 169.472 338.373 171.119 336.417 170.967L306.75 168.673C305.528 168.578 304.51 169.604 304.48 170.96L304.393 175.017Z" fill="white"/>
<path d="M390.01 181.581L388.68 181.479L388.767 177.457C388.796 176.114 387.843 174.945 386.642 174.852L357.292 172.582C355.344 172.431 353.797 170.541 353.844 168.368L353.964 162.851L355.304 162.956L355.185 168.472C355.155 169.821 356.115 170.994 357.324 171.088L386.674 173.363C388.609 173.513 390.144 175.396 390.097 177.56L390.01 181.581Z" fill="white"/>
<path d="M297.791 218.935L296.461 218.833L296.548 214.812C296.577 213.468 295.624 212.299 294.423 212.206L265.073 209.936C263.125 209.785 261.578 207.895 261.625 205.723L261.745 200.205L263.085 200.31L262.965 205.827C262.936 207.175 263.896 208.349 265.105 208.442L294.455 210.717C296.39 210.867 297.925 212.75 297.878 214.914L297.791 218.935Z" fill="white"/>
<path d="M317.693 222.224L287.686 220.071C285.656 219.926 283.97 221.629 283.921 223.877L283.595 238.904C283.547 241.152 285.153 243.088 287.183 243.228L317.192 245.308C319.208 245.448 320.881 243.746 320.93 241.508L321.255 226.539C321.303 224.301 319.709 222.369 317.693 222.224Z" fill="white"/>
<path d="M360.571 225.301L330.837 223.167C328.826 223.023 327.155 224.72 327.107 226.957L326.782 241.916C326.733 244.153 328.325 246.079 330.337 246.219L360.072 248.28C362.07 248.418 363.728 246.724 363.777 244.496L364.1 229.595C364.149 227.367 362.569 225.444 360.571 225.301Z" fill="white"/>
<path d="M403.061 228.35L373.597 226.236C371.604 226.093 369.948 227.782 369.9 230.009L369.576 244.9C369.528 247.127 371.105 249.044 373.099 249.182L402.565 251.224C404.545 251.362 406.188 249.674 406.236 247.456L406.558 232.624C406.606 230.405 405.041 228.492 403.061 228.35Z" fill="white"/>
<path d="M346.446 222.11L345.104 222.014L345.45 206.061L346.792 206.16L346.446 222.11Z" fill="white"/>
<path d="M303.437 219.014L302.083 218.917L302.171 214.859C302.218 212.674 303.859 211.014 305.829 211.157L335.498 213.318C336.712 213.407 337.724 212.38 337.753 211.029L337.873 205.503L339.218 205.602L339.098 211.127C339.051 213.303 337.421 214.958 335.465 214.815L305.796 212.659C304.574 212.57 303.555 213.601 303.526 214.957L303.437 219.014Z" fill="white"/>
<path d="M389.064 225.178L387.734 225.082L387.821 221.061C387.85 219.718 386.897 218.554 385.695 218.466L356.343 216.333C354.395 216.191 352.847 214.308 352.895 212.136L353.014 206.618L354.355 206.717L354.235 212.234C354.206 213.582 355.166 214.751 356.375 214.839L385.728 216.977C387.663 217.118 389.198 218.993 389.151 221.158L389.064 225.178Z" fill="white"/>
<path d="M394.515 225.637L395.846 225.726L396.315 221.731C396.471 220.396 397.576 219.375 398.778 219.454L428.144 221.393C430.093 221.521 431.885 219.87 432.139 217.712L432.781 212.231L431.44 212.144L430.797 217.624C430.64 218.964 429.528 219.989 428.318 219.909L398.951 217.975C397.015 217.848 395.236 219.493 394.983 221.643L394.515 225.637Z" fill="white"/>
</g>
</g>
<defs>
<linearGradient id="paint0_linear_243_12" x1="139.629" y1="108.751" x2="189.959" y2="285.773" gradientUnits="userSpaceOnUse">
<stop stop-color="#EA493D"/>
<stop offset="0.9964" stop-color="#F36F56"/>
</linearGradient>
<linearGradient id="paint1_linear_243_12" x1="145.757" y1="166.564" x2="235.494" y2="740.239" gradientUnits="userSpaceOnUse">
<stop offset="0.0036" stop-color="#00A0C6"/>
<stop offset="1" stop-color="#9571F6"/>
</linearGradient>
<linearGradient id="paint2_linear_243_12" x1="191.992" y1="535.096" x2="173.317" y2="542.94" gradientUnits="userSpaceOnUse">
<stop stop-color="#40447E"/>
<stop offset="0.9964" stop-color="#3C3B6B"/>
</linearGradient>
<linearGradient id="paint3_linear_243_12" x1="167.055" y1="452.788" x2="146.788" y2="461.3" gradientUnits="userSpaceOnUse">
<stop stop-color="#40447E"/>
<stop offset="0.9964" stop-color="#3C3B6B"/>
</linearGradient>
<linearGradient id="paint4_linear_243_12" x1="79.6982" y1="457.395" x2="267.524" y2="457.395" gradientUnits="userSpaceOnUse">
<stop stop-color="#40447E"/>
<stop offset="0.9964" stop-color="#3C3B6B"/>
</linearGradient>
<linearGradient id="paint5_linear_243_12" x1="79.6982" y1="526.853" x2="345.549" y2="526.853" gradientUnits="userSpaceOnUse">
<stop stop-color="#40447E"/>
<stop offset="0.9964" stop-color="#3C3B6B"/>
</linearGradient>
<linearGradient id="paint6_linear_243_12" x1="105.769" y1="524.674" x2="300.556" y2="524.674" gradientUnits="userSpaceOnUse">
<stop stop-color="#40447E"/>
<stop offset="0.9964" stop-color="#3C3B6B"/>
</linearGradient>
<linearGradient id="paint7_linear_243_12" x1="152.541" y1="442.273" x2="218.014" y2="339.043" gradientUnits="userSpaceOnUse">
<stop stop-color="#FF9085"/>
<stop offset="1" stop-color="#FB6FBB"/>
</linearGradient>
<linearGradient id="paint8_linear_243_12" x1="137.603" y1="429.069" x2="192.216" y2="547.444" gradientUnits="userSpaceOnUse">
<stop offset="0.0036" stop-color="#E38DDD"/>
<stop offset="1" stop-color="#9571F6"/>
</linearGradient>
<linearGradient id="paint9_linear_243_12" x1="204.526" y1="398.138" x2="256.754" y2="511.347" gradientUnits="userSpaceOnUse">
<stop offset="0.0036" stop-color="#E38DDD"/>
<stop offset="1" stop-color="#9571F6"/>
</linearGradient>
<linearGradient id="paint10_linear_243_12" x1="147.531" y1="430.852" x2="197.504" y2="539.172" gradientUnits="userSpaceOnUse">
<stop offset="0.0036" stop-color="#E38DDD"/>
<stop offset="1" stop-color="#9571F6"/>
</linearGradient>
<linearGradient id="paint11_linear_243_12" x1="426.582" y1="494.123" x2="427.36" y2="523.3" gradientUnits="userSpaceOnUse">
<stop stop-color="#444B8C"/>
<stop offset="0.9964" stop-color="#26264F"/>
</linearGradient>
<linearGradient id="paint12_linear_243_12" x1="432.934" y1="457.852" x2="347.198" y2="156.853" gradientUnits="userSpaceOnUse">
<stop stop-color="#444B8C"/>
<stop offset="0.9964" stop-color="#26264F"/>
</linearGradient>
<linearGradient id="paint13_linear_243_12" x1="347.188" y1="263.202" x2="503.437" y2="430.957" gradientUnits="userSpaceOnUse">
<stop stop-color="#FF9085"/>
<stop offset="1" stop-color="#FB6FBB"/>
</linearGradient>
<linearGradient id="paint14_linear_243_12" x1="296.375" y1="482.376" x2="535.821" y2="482.376" gradientUnits="userSpaceOnUse">
<stop stop-color="#444B8C"/>
<stop offset="0.9964" stop-color="#26264F"/>
</linearGradient>
<linearGradient id="paint15_linear_243_12" x1="370.909" y1="355.346" x2="439.341" y2="503.677" gradientUnits="userSpaceOnUse">
<stop offset="0.0036" stop-color="#8DE38D"/>
<stop offset="1" stop-color="#71D3F6"/>
</linearGradient>
<linearGradient id="paint16_linear_243_12" x1="457.66" y1="322.348" x2="520.744" y2="459.087" gradientUnits="userSpaceOnUse">
<stop offset="0.0036" stop-color="#91E38D"/>
<stop offset="1" stop-color="#9571F6"/>
</linearGradient>
<linearGradient id="paint17_linear_243_12" x1="382.267" y1="350.185" x2="447.773" y2="492.175" gradientUnits="userSpaceOnUse">
<stop offset="0.0036" stop-color="#8DE39A"/>
<stop offset="1" stop-color="#71F671" stop-opacity="0.35"/>
</linearGradient>
<linearGradient id="paint18_linear_243_12" x1="180.708" y1="185.703" x2="493.5" y2="185.703" gradientUnits="userSpaceOnUse">
<stop offset="0.0036" stop-color="#00A0C6"/>
<stop offset="1" stop-color="#00A0C6"/>
</linearGradient>
<linearGradient id="paint19_linear_243_12" x1="409.172" y1="257.745" x2="525.947" y2="257.745" gradientUnits="userSpaceOnUse">
<stop offset="0.0036" stop-color="#F8F8F8"/>
<stop offset="1" stop-color="#F8F8F8"/>
</linearGradient>
<clipPath id="clip0_243_12">
<rect width="618" height="618" fill="white"/>
</clipPath>
</defs>
</svg>
